<svg xmlns="http://www.w3.org/2000/svg" xmlns:xlink="http://www.w3.org/1999/xlink" contentStyleType="text/css" data-diagram-type="CLASS" height="428px" preserveAspectRatio="none" style="width:1061px;height:428px;background:#FFFFFF;" version="1.1" viewBox="0 0 1061 428" width="1061px" zoomAndPan="magnify"><title>Modelo conceptual (dominio 1942)</title><defs/><g><g class="title" data-source-line="1"><text fill="#000000" font-family="sans-serif" font-size="14" font-weight="bold" lengthAdjust="spacing" textLength="273.8818" x="386.5706" y="22.9951">Modelo conceptual (dominio 1942)</text></g><!--class Jugador--><g class="entity" data-entity="Jugador" data-source-line="7" data-uid="ent0002" id="entity_Jugador"><rect fill="#F1F1F1" height="48.2656" rx="2.5" ry="2.5" style="stroke:#181818;stroke-width:0.5;" width="85.6758" x="17.77" y="236.1569"/><ellipse cx="32.77" cy="256.2897" fill="#ADD1B2" rx="11" ry="11" style="stroke:#181818;stroke-width:1;"/><path d="M35.7387,261.9303 Q35.1606,262.2272 34.52,262.3678 Q33.8794,262.5241 33.1762,262.5241 Q30.6762,262.5241 29.3481,260.8834 Q28.0356,259.2272 28.0356,256.1022 Q28.0356,252.9772 29.3481,251.3209 Q30.6762,249.6647 33.1762,249.6647 Q33.8794,249.6647 34.52,249.8209 Q35.1762,249.9772 35.7387,250.2741 L35.7387,252.9928 Q35.1137,252.4147 34.52,252.1491 Q33.9262,251.8678 33.3012,251.8678 Q31.9575,251.8678 31.27,252.9459 Q30.5825,254.0084 30.5825,256.1022 Q30.5825,258.1959 31.27,259.2741 Q31.9575,260.3366 33.3012,260.3366 Q33.9262,260.3366 34.52,260.0709 Q35.1137,259.7897 35.7387,259.2116 L35.7387,261.9303 Z " fill="#000000"/><text fill="#000000" font-family="sans-serif" font-size="12" font-style="italic" lengthAdjust="spacing" textLength="45.6152" x="50.8003" y="252.2955">&#171;actor&#187;</text><text fill="#000000" font-family="sans-serif" font-size="14" lengthAdjust="spacing" textLength="53.6758" x="46.77" y="268.1207">Jugador</text><line style="stroke:#181818;stroke-width:0.5;" x1="18.77" x2="102.4458" y1="276.4225" y2="276.4225"/></g><!--class Controller--><g class="entity" data-entity="Controller" data-source-line="9" data-uid="ent0003" id="entity_Controller"><rect fill="#F1F1F1" height="40" rx="2.5" ry="2.5" style="stroke:#181818;stroke-width:0.5;" width="101.1729" x="10.02" y="336.2969"/><ellipse cx="25.02" cy="352.2969" fill="#ADD1B2" rx="11" ry="11" style="stroke:#181818;stroke-width:1;"/><path d="M27.9888,357.9375 Q27.4106,358.2344 26.77,358.375 Q26.1294,358.5313 25.4263,358.5313 Q22.9263,358.5313 21.5981,356.8906 Q20.2856,355.2344 20.2856,352.1094 Q20.2856,348.9844 21.5981,347.3281 Q22.9263,345.6719 25.4263,345.6719 Q26.1294,345.6719 26.77,345.8281 Q27.4263,345.9844 27.9888,346.2813 L27.9888,349 Q27.3638,348.4219 26.77,348.1563 Q26.1763,347.875 25.5513,347.875 Q24.2075,347.875 23.52,348.9531 Q22.8325,350.0156 22.8325,352.1094 Q22.8325,354.2031 23.52,355.2813 Q24.2075,356.3438 25.5513,356.3438 Q26.1763,356.3438 26.77,356.0781 Q27.3638,355.7969 27.9888,355.2188 L27.9888,357.9375 Z " fill="#000000"/><text fill="#000000" font-family="sans-serif" font-size="14" lengthAdjust="spacing" textLength="69.1729" x="39.02" y="357.1436">Controller</text><line style="stroke:#181818;stroke-width:0.5;" x1="11.02" x2="110.1929" y1="368.2969" y2="368.2969"/></g><!--class View--><g class="entity" data-entity="View" data-source-line="10" data-uid="ent0004" id="entity_View"><rect fill="#F1F1F1" height="40" rx="2.5" ry="2.5" style="stroke:#181818;stroke-width:0.5;" width="65.5303" x="348.08" y="297.2969"/><ellipse cx="363.08" cy="313.2969" fill="#A9DCDF" rx="11" ry="11" style="stroke:#181818;stroke-width:1;"/><path d="M363.1894,308.6406 L362.0331,313.7188 L364.3613,313.7188 L363.1894,308.6406 Z M361.705,306.4063 L364.6894,306.4063 L368.0488,318.7969 L365.5956,318.7969 L364.83,315.7344 L361.5488,315.7344 L360.7988,318.7969 L358.3613,318.7969 L361.705,306.4063 Z " fill="#000000"/><text fill="#000000" font-family="sans-serif" font-size="14" font-style="italic" lengthAdjust="spacing" textLength="33.5303" x="377.08" y="318.1436">View</text><line style="stroke:#181818;stroke-width:0.5;" x1="349.08" x2="412.6103" y1="329.2969" y2="329.2969"/></g><!--class GameView--><g class="entity" data-entity="GameView" data-source-line="11" data-uid="ent0005" id="entity_GameView"><rect fill="#F1F1F1" height="40" rx="2.5" ry="2.5" style="stroke:#181818;stroke-width:0.5;" width="107.209" x="7" y="100.2969"/><ellipse cx="22" cy="116.2969" fill="#ADD1B2" rx="11" ry="11" style="stroke:#181818;stroke-width:1;"/><path d="M24.9688,121.9375 Q24.3906,122.2344 23.75,122.375 Q23.1094,122.5313 22.4063,122.5313 Q19.9063,122.5313 18.5781,120.8906 Q17.2656,119.2344 17.2656,116.1094 Q17.2656,112.9844 18.5781,111.3281 Q19.9063,109.6719 22.4063,109.6719 Q23.1094,109.6719 23.75,109.8281 Q24.4063,109.9844 24.9688,110.2813 L24.9688,113 Q24.3438,112.4219 23.75,112.1563 Q23.1563,111.875 22.5313,111.875 Q21.1875,111.875 20.5,112.9531 Q19.8125,114.0156 19.8125,116.1094 Q19.8125,118.2031 20.5,119.2813 Q21.1875,120.3438 22.5313,120.3438 Q23.1563,120.3438 23.75,120.0781 Q24.3438,119.7969 24.9688,119.2188 L24.9688,121.9375 Z " fill="#000000"/><text fill="#000000" font-family="sans-serif" font-size="14" lengthAdjust="spacing" textLength="75.209" x="36" y="121.1436">GameView</text><line style="stroke:#181818;stroke-width:0.5;" x1="8" x2="113.209" y1="132.2969" y2="132.2969"/></g><!--class GameData--><g class="entity" data-entity="GameData" data-source-line="12" data-uid="ent0006" id="entity_GameData"><rect fill="#F1F1F1" height="40" rx="2.5" ry="2.5" style="stroke:#181818;stroke-width:0.5;" width="107.1064" x="659.28" y="377.2969"/><ellipse cx="674.28" cy="393.2969" fill="#ADD1B2" rx="11" ry="11" style="stroke:#181818;stroke-width:1;"/><path d="M677.2488,398.9375 Q676.6706,399.2344 676.03,399.375 Q675.3894,399.5313 674.6863,399.5313 Q672.1863,399.5313 670.8581,397.8906 Q669.5456,396.2344 669.5456,393.1094 Q669.5456,389.9844 670.8581,388.3281 Q672.1863,386.6719 674.6863,386.6719 Q675.3894,386.6719 676.03,386.8281 Q676.6863,386.9844 677.2488,387.2813 L677.2488,390 Q676.6238,389.4219 676.03,389.1563 Q675.4363,388.875 674.8113,388.875 Q673.4675,388.875 672.78,389.9531 Q672.0925,391.0156 672.0925,393.1094 Q672.0925,395.2031 672.78,396.2813 Q673.4675,397.3438 674.8113,397.3438 Q675.4363,397.3438 676.03,397.0781 Q676.6238,396.7969 677.2488,396.2188 L677.2488,398.9375 Z " fill="#000000"/><text fill="#000000" font-family="sans-serif" font-size="14" lengthAdjust="spacing" textLength="75.1064" x="688.28" y="398.1436">GameData</text><line style="stroke:#181818;stroke-width:0.5;" x1="660.28" x2="765.3864" y1="409.2969" y2="409.2969"/></g><!--class Nave--><g class="entity" data-entity="Nave" data-source-line="13" data-uid="ent0007" id="entity_Nave"><rect fill="#F1F1F1" height="40" rx="2.5" ry="2.5" style="stroke:#181818;stroke-width:0.5;" width="67.9502" x="956.13" y="44.2969"/><ellipse cx="971.13" cy="60.2969" fill="#ADD1B2" rx="11" ry="11" style="stroke:#181818;stroke-width:1;"/><path d="M974.0988,65.9375 Q973.5206,66.2344 972.88,66.375 Q972.2394,66.5313 971.5363,66.5313 Q969.0363,66.5313 967.7081,64.8906 Q966.3956,63.2344 966.3956,60.1094 Q966.3956,56.9844 967.7081,55.3281 Q969.0363,53.6719 971.5363,53.6719 Q972.2394,53.6719 972.88,53.8281 Q973.5363,53.9844 974.0988,54.2813 L974.0988,57 Q973.4738,56.4219 972.88,56.1563 Q972.2863,55.875 971.6613,55.875 Q970.3175,55.875 969.63,56.9531 Q968.9425,58.0156 968.9425,60.1094 Q968.9425,62.2031 969.63,63.2813 Q970.3175,64.3438 971.6613,64.3438 Q972.2863,64.3438 972.88,64.0781 Q973.4738,63.7969 974.0988,63.2188 L974.0988,65.9375 Z " fill="#000000"/><text fill="#000000" font-family="sans-serif" font-size="14" lengthAdjust="spacing" textLength="35.9502" x="985.13" y="65.1436">Nave</text><line style="stroke:#181818;stroke-width:0.5;" x1="957.13" x2="1023.0802" y1="76.2969" y2="76.2969"/></g><!--class Enemigo--><g class="entity" data-entity="Enemigo" data-source-line="14" data-uid="ent0008" id="entity_Enemigo"><rect fill="#F1F1F1" height="40" rx="2.5" ry="2.5" style="stroke:#181818;stroke-width:0.5;" width="93.3115" x="334.19" y="100.2969"/><ellipse cx="349.19" cy="116.2969" fill="#ADD1B2" rx="11" ry="11" style="stroke:#181818;stroke-width:1;"/><path d="M352.1588,121.9375 Q351.5806,122.2344 350.94,122.375 Q350.2994,122.5313 349.5963,122.5313 Q347.0963,122.5313 345.7681,120.8906 Q344.4556,119.2344 344.4556,116.1094 Q344.4556,112.9844 345.7681,111.3281 Q347.0963,109.6719 349.5963,109.6719 Q350.2994,109.6719 350.94,109.8281 Q351.5963,109.9844 352.1588,110.2813 L352.1588,113 Q351.5338,112.4219 350.94,112.1563 Q350.3463,111.875 349.7213,111.875 Q348.3775,111.875 347.69,112.9531 Q347.0025,114.0156 347.0025,116.1094 Q347.0025,118.2031 347.69,119.2813 Q348.3775,120.3438 349.7213,120.3438 Q350.3463,120.3438 350.94,120.0781 Q351.5338,119.7969 352.1588,119.2188 L352.1588,121.9375 Z " fill="#000000"/><text fill="#000000" font-family="sans-serif" font-size="14" lengthAdjust="spacing" textLength="61.3115" x="363.19" y="121.1436">Enemigo</text><line style="stroke:#181818;stroke-width:0.5;" x1="335.19" x2="426.5015" y1="132.2969" y2="132.2969"/></g><!--class Municion--><g class="entity" data-entity="Municion" data-source-line="15" data-uid="ent0009" id="entity_Municion"><rect fill="#F1F1F1" height="40" rx="2.5" ry="2.5" style="stroke:#181818;stroke-width:0.5;" width="94.7402" x="665.47" y="106.2969"/><ellipse cx="680.47" cy="122.2969" fill="#ADD1B2" rx="11" ry="11" style="stroke:#181818;stroke-width:1;"/><path d="M683.4388,127.9375 Q682.8606,128.2344 682.22,128.375 Q681.5794,128.5313 680.8763,128.5313 Q678.3763,128.5313 677.0481,126.8906 Q675.7356,125.2344 675.7356,122.1094 Q675.7356,118.9844 677.0481,117.3281 Q678.3763,115.6719 680.8763,115.6719 Q681.5794,115.6719 682.22,115.8281 Q682.8763,115.9844 683.4388,116.2813 L683.4388,119 Q682.8138,118.4219 682.22,118.1563 Q681.6263,117.875 681.0013,117.875 Q679.6575,117.875 678.97,118.9531 Q678.2825,120.0156 678.2825,122.1094 Q678.2825,124.2031 678.97,125.2813 Q679.6575,126.3438 681.0013,126.3438 Q681.6263,126.3438 682.22,126.0781 Q682.8138,125.7969 683.4388,125.2188 L683.4388,127.9375 Z " fill="#000000"/><text fill="#000000" font-family="sans-serif" font-size="14" lengthAdjust="spacing" textLength="62.7402" x="694.47" y="127.1436">Municion</text><line style="stroke:#181818;stroke-width:0.5;" x1="666.47" x2="759.2102" y1="138.2969" y2="138.2969"/></g><!--class GestorDatos--><g class="entity" data-entity="GestorDatos" data-source-line="16" data-uid="ent0010" id="entity_GestorDatos"><rect fill="#F1F1F1" height="48.2656" rx="2.5" ry="2.5" style="stroke:#181818;stroke-width:0.5;" width="119.2744" x="321.21" y="373.1569"/><ellipse cx="336.21" cy="393.2897" fill="#ADD1B2" rx="11" ry="11" style="stroke:#181818;stroke-width:1;"/><path d="M339.1788,398.9303 Q338.6006,399.2272 337.96,399.3678 Q337.3194,399.5241 336.6163,399.5241 Q334.1163,399.5241 332.7881,397.8834 Q331.4756,396.2272 331.4756,393.1022 Q331.4756,389.9772 332.7881,388.3209 Q334.1163,386.6647 336.6163,386.6647 Q337.3194,386.6647 337.96,386.8209 Q338.6163,386.9772 339.1788,387.2741 L339.1788,389.9928 Q338.5538,389.4147 337.96,389.1491 Q337.3663,388.8678 336.7413,388.8678 Q335.3975,388.8678 334.71,389.9459 Q334.0225,391.0084 334.0225,393.1022 Q334.0225,395.1959 334.71,396.2741 Q335.3975,397.3366 336.7413,397.3366 Q337.3663,397.3366 337.96,397.0709 Q338.5538,396.7897 339.1788,396.2116 L339.1788,398.9303 Z " fill="#000000"/><text fill="#000000" font-family="sans-serif" font-size="12" font-style="italic" lengthAdjust="spacing" textLength="48.8027" x="369.4458" y="389.2955">&#171;utility&#187;</text><text fill="#000000" font-family="sans-serif" font-size="14" lengthAdjust="spacing" textLength="87.2744" x="350.21" y="405.1207">GestorDatos</text><line style="stroke:#181818;stroke-width:0.5;" x1="322.21" x2="439.4844" y1="413.4225" y2="413.4225"/></g><!--class GraficoBarras--><g class="entity" data-entity="GraficoBarras" data-source-line="17" data-uid="ent0011" id="entity_GraficoBarras"><rect fill="#F1F1F1" height="40" rx="2.5" ry="2.5" style="stroke:#181818;stroke-width:0.5;" width="127.833" x="926.19" y="377.2969"/><ellipse cx="941.19" cy="393.2969" fill="#ADD1B2" rx="11" ry="11" style="stroke:#181818;stroke-width:1;"/><path d="M944.1588,398.9375 Q943.5806,399.2344 942.94,399.375 Q942.2994,399.5313 941.5963,399.5313 Q939.0963,399.5313 937.7681,397.8906 Q936.4556,396.2344 936.4556,393.1094 Q936.4556,389.9844 937.7681,388.3281 Q939.0963,386.6719 941.5963,386.6719 Q942.2994,386.6719 942.94,386.8281 Q943.5963,386.9844 944.1588,387.2813 L944.1588,390 Q943.5338,389.4219 942.94,389.1563 Q942.3463,388.875 941.7213,388.875 Q940.3775,388.875 939.69,389.9531 Q939.0025,391.0156 939.0025,393.1094 Q939.0025,395.2031 939.69,396.2813 Q940.3775,397.3438 941.7213,397.3438 Q942.3463,397.3438 942.94,397.0781 Q943.5338,396.7969 944.1588,396.2188 L944.1588,398.9375 Z " fill="#000000"/><text fill="#000000" font-family="sans-serif" font-size="14" lengthAdjust="spacing" textLength="95.833" x="955.19" y="398.1436">GraficoBarras</text><line style="stroke:#181818;stroke-width:0.5;" x1="927.19" x2="1053.023" y1="409.2969" y2="409.2969"/></g><g class="entity" data-entity="GMN12" data-source-line="20" data-uid="ent0013" id="entity_GMN12"><path d="M618.48,210.7669 L618.48,341.8294 L807.1851,341.8294 L807.1851,220.7669 L797.1851,210.7669 L618.48,210.7669" fill="#FEFFDD" style="stroke:#181818;stroke-width:0.5;"/><path d="M797.1851,210.7669 L797.1851,220.7669 L807.1851,220.7669 L797.1851,210.7669" fill="#FEFFDD" style="stroke:#181818;stroke-width:1;"/><text fill="#000000" font-family="sans-serif" font-size="13" lengthAdjust="spacing" textLength="167.7051" x="624.48" y="227.8338">Tipos de vista (ejemplos):</text><text fill="#000000" font-family="sans-serif" font-size="13" lengthAdjust="spacing" textLength="44.5161" x="624.48" y="242.9666">- Menu</text><text fill="#000000" font-family="sans-serif" font-size="13" lengthAdjust="spacing" textLength="60.7598" x="624.48" y="258.0994">- Nombre</text><text fill="#000000" font-family="sans-serif" font-size="13" lengthAdjust="spacing" textLength="45.1001" x="624.48" y="273.2322">- Juego</text><text fill="#000000" font-family="sans-serif" font-size="13" lengthAdjust="spacing" textLength="47.6074" x="624.48" y="288.365">- Pausa</text><text fill="#000000" font-family="sans-serif" font-size="13" lengthAdjust="spacing" textLength="95.2212" x="624.48" y="303.4978">- Instrucciones</text><text fill="#000000" font-family="sans-serif" font-size="13" lengthAdjust="spacing" textLength="86.106" x="624.48" y="318.6306">- Estadisticas</text><text fill="#000000" font-family="sans-serif" font-size="13" lengthAdjust="spacing" textLength="78.7935" x="624.48" y="333.7635">- GameOver</text></g><!--link View to GMN12--><g class="link" data-entity-1="View" data-entity-2="GMN12" data-source-line="20" data-uid="lnk14" id="link_View_GMN12"><path d="M413.8,311.8869 C430.63,309.1369 451.65,305.8369 470.48,303.2969 C519.06,296.7469 573.29,290.5769 618.02,285.7969" fill="none" id="View-GMN12" style="stroke:#181818;stroke-width:1;stroke-dasharray:7,7;"/></g><!--link Jugador to View--><g class="link" data-entity-1="Jugador" data-entity-2="View" data-source-line="30" data-uid="lnk15" id="link_Jugador_View"><path codeLine="30" d="M103.86,267.8669 C168.45,279.4269 284.3839,300.1997 342.0939,310.5297" fill="none" id="Jugador-to-View" style="stroke:#181818;stroke-width:1;"/><polygon fill="#181818" points="348,311.5869,339.8456,306.0637,343.0782,310.7059,338.436,313.9385,348,311.5869" style="stroke:#181818;stroke-width:1;"/><text fill="#000000" font-family="sans-serif" font-size="13" lengthAdjust="spacing" textLength="66.7075" x="184.71" y="256.3638">interact&#250;a</text><text fill="#000000" font-family="sans-serif" font-size="13" lengthAdjust="spacing" textLength="58.1699" x="188.9788" y="271.4966">(teclado)</text></g><!--reverse link Controller to View--><g class="link" data-entity-1="Controller" data-entity-2="View" data-source-line="31" data-uid="lnk16" id="link_Controller_View"><path codeLine="31" d="M122.8657,375.1077 C170.2657,387.5677 231.48,396.8469 291.21,377.2969 C306.92,372.1469 307.6,364.6869 321.21,355.2969 C329.7,349.4369 339.01,343.2869 347.67,337.6669" fill="none" id="Controller-backto-View" style="stroke:#181818;stroke-width:1;"/><polygon fill="none" points="111.26,372.0569,116.0459,377.4508,122.8657,375.1077,118.0798,369.7137,111.26,372.0569" style="stroke:#181818;stroke-width:1;"/><text fill="#000000" font-family="sans-serif" font-size="13" lengthAdjust="spacing" textLength="145.2661" x="145.21" y="373.3638">gestiona/estadoActual</text><text fill="#000000" font-family="sans-serif" font-size="13" lengthAdjust="spacing" textLength="8.271" x="119.3071" y="387.5498">1</text><text fill="#000000" font-family="sans-serif" font-size="13" lengthAdjust="spacing" textLength="8.271" x="332.0306" y="355.4957">1</text></g><!--reverse link Controller to View--><g class="link" data-entity-1="Controller" data-entity-2="View" data-source-line="32" data-uid="lnk17" id="link_Controller_View"><path codeLine="32" d="M123.5909,348.697 C189.7609,340.587 292.48,327.9969 347.95,321.2069" fill="none" id="Controller-backto-View-1" style="stroke:#181818;stroke-width:1;"/><polygon fill="none" points="111.68,350.1569,118.122,353.3972,123.5909,348.697,117.1488,345.4567,111.68,350.1569" style="stroke:#181818;stroke-width:1;"/><text fill="#000000" font-family="sans-serif" font-size="13" lengthAdjust="spacing" textLength="50.3877" x="192.71" y="324.3638">registra</text><text fill="#000000" font-family="sans-serif" font-size="13" lengthAdjust="spacing" textLength="8.271" x="119.0987" y="362.4154">1</text><text fill="#000000" font-family="sans-serif" font-size="13" lengthAdjust="spacing" textLength="6.5" x="333.7071" y="335.9277">*</text></g><!--link View to GameData--><g class="link" data-entity-1="View" data-entity-2="GameData" data-source-line="33" data-uid="lnk18" id="link_View_GameData"><path codeLine="33" d="M414.09,325.1069 C471.01,338.9069 583.9889,366.3032 653.0789,383.0532" fill="none" id="View-to-GameData" style="stroke:#181818;stroke-width:1;"/><polygon fill="#181818" points="658.91,384.4669,651.1058,378.459,654.0508,383.2888,649.2209,386.2338,658.91,384.4669" style="stroke:#181818;stroke-width:1;"/><text fill="#000000" font-family="sans-serif" font-size="13" lengthAdjust="spacing" textLength="116.8921" x="471.48" y="336.3638">muestra/actualiza</text></g><!--reverse link GameView to Nave--><g class="link" data-entity-1="GameView" data-entity-2="Nave" data-source-line="35" data-uid="lnk19" id="link_GameView_Nave"><path codeLine="35" d="M126.0467,99.1398 C135.8367,96.3698 134.49,97.0969 144.21,95.2969 C221.76,80.8969 242.46,86.7869 321.21,82.2969 C550.35,69.2169 607.72,65.9569 837.19,61.2969 C878.07,60.4669 925.14,61.7369 955.91,62.8769" fill="none" id="GameView-backto-Nave" style="stroke:#181818;stroke-width:1;"/><polygon fill="none" points="114.5,102.4069,121.3624,104.6223,126.0467,99.1398,119.1843,96.9245,114.5,102.4069" style="stroke:#181818;stroke-width:1;"/><text fill="#000000" font-family="sans-serif" font-size="13" lengthAdjust="spacing" textLength="56.2847" x="501.48" y="65.3638">contiene</text><text fill="#000000" font-family="sans-serif" font-size="13" lengthAdjust="spacing" textLength="8.271" x="122.2979" y="113.0865">1</text><text fill="#000000" font-family="sans-serif" font-size="13" lengthAdjust="spacing" textLength="8.271" x="940.0602" y="76.2115">1</text></g><!--reverse link GameView to Enemigo--><g class="link" data-entity-1="GameView" data-entity-2="Enemigo" data-source-line="36" data-uid="lnk20" id="link_GameView_Enemigo"><path codeLine="36" d="M126.51,120.2969 C187.75,120.2969 275.63,120.2969 333.8,120.2969" fill="none" id="GameView-backto-Enemigo" style="stroke:#181818;stroke-width:1;"/><polygon fill="none" points="114.51,120.2969,120.51,124.2969,126.51,120.2969,120.51,116.2969,114.51,120.2969" style="stroke:#181818;stroke-width:1;"/><text fill="#000000" font-family="sans-serif" font-size="13" lengthAdjust="spacing" textLength="56.2847" x="189.71" y="116.3638">contiene</text><text fill="#000000" font-family="sans-serif" font-size="13" lengthAdjust="spacing" textLength="8.271" x="122.3093" y="133.3805">1</text><text fill="#000000" font-family="sans-serif" font-size="13" lengthAdjust="spacing" textLength="6.5" x="319.5526" y="133.617">*</text></g><!--reverse link GameView to Municion--><g class="link" data-entity-1="GameView" data-entity-2="Municion" data-source-line="37" data-uid="lnk21" id="link_GameView_Municion"><path codeLine="37" d="M125.9017,137.8647 C177.9817,151.4447 248.58,167.6869 321.21,175.2969 C439.49,187.6869 471.6,184.2669 588.48,162.2969 C614.25,157.4569 642.34,149.4669 665.21,142.2569" fill="none" id="GameView-backto-Municion" style="stroke:#181818;stroke-width:1;"/><polygon fill="none" points="114.29,134.8369,119.0866,140.2214,125.9017,137.8647,121.1051,132.4802,114.29,134.8369" style="stroke:#181818;stroke-width:1;"/><text fill="#000000" font-family="sans-serif" font-size="13" lengthAdjust="spacing" textLength="56.2847" x="352.85" y="171.3638">contiene</text><text fill="#000000" font-family="sans-serif" font-size="13" lengthAdjust="spacing" textLength="8.271" x="122.0597" y="149.8743">1</text><text fill="#000000" font-family="sans-serif" font-size="13" lengthAdjust="spacing" textLength="6.5" x="650.8658" y="158.2203">*</text></g><!--link Enemigo to Municion--><g class="link" data-entity-1="Enemigo" data-entity-2="Municion" data-source-line="39" data-uid="lnk22" id="link_Enemigo_Municion"><path codeLine="39" d="M427.73,121.1269 C490.33,122.2669 595.921,124.1875 659.011,125.3375" fill="none" id="Enemigo-to-Municion" style="stroke:#181818;stroke-width:1;"/><polygon fill="#181818" points="665.01,125.4469,656.0844,121.2835,660.0108,125.3558,655.9386,129.2822,665.01,125.4469" style="stroke:#181818;stroke-width:1;"/><text fill="#000000" font-family="sans-serif" font-size="13" lengthAdjust="spacing" textLength="48.166" x="505.48" y="118.3638">dispara</text><text fill="#000000" font-family="sans-serif" font-size="13" lengthAdjust="spacing" textLength="8.271" x="435.5424" y="134.4795">1</text><text fill="#000000" font-family="sans-serif" font-size="13" lengthAdjust="spacing" textLength="6.5" x="650.9488" y="138.5842">*</text></g><!--link Municion to Enemigo--><g class="link" data-entity-1="Municion" data-entity-2="Enemigo" data-source-line="40" data-uid="lnk23" id="link_Municion_Enemigo"><path codeLine="40" d="M665.35,137.6669 C616.58,147.9669 537.82,160.0269 470.48,149.2969 C456.25,147.0269 446.8938,144.7192 433.3238,140.2092" fill="none" id="Municion-to-Enemigo" style="stroke:#181818;stroke-width:1;stroke-dasharray:7,7;"/><polygon fill="#181818" points="427.63,138.3169,434.9091,144.9512,432.3748,139.8938,437.4322,137.3595,427.63,138.3169" style="stroke:#181818;stroke-width:1;"/><text fill="#000000" font-family="sans-serif" font-size="13" lengthAdjust="spacing" textLength="52.7046" x="503.48" y="145.3638">impacta</text></g><!--link Municion to Nave--><g class="link" data-entity-1="Municion" data-entity-2="Nave" data-source-line="41" data-uid="lnk24" id="link_Municion_Nave"><path codeLine="41" d="M760.53,115.7769 C815.91,103.3069 900.9765,84.1448 949.7865,73.1548" fill="none" id="Municion-to-Nave" style="stroke:#181818;stroke-width:1;stroke-dasharray:7,7;"/><polygon fill="#181818" points="955.64,71.8369,945.9812,69.9115,950.7621,72.9352,947.7384,77.7161,955.64,71.8369" style="stroke:#181818;stroke-width:1;"/><text fill="#000000" font-family="sans-serif" font-size="13" lengthAdjust="spacing" textLength="52.7046" x="840.69" y="82.3638">impacta</text></g><!--link GestorDatos to GameData--><g class="link" data-entity-1="GestorDatos" data-entity-2="GameData" data-source-line="43" data-uid="lnk25" id="link_GestorDatos_GameData"><path codeLine="43" d="M440.84,397.2969 C502.76,397.2969 593.22,397.2969 652.8,397.2969" fill="none" id="GestorDatos-to-GameData" style="stroke:#181818;stroke-width:1;"/><polygon fill="#181818" points="658.8,397.2969,649.8,393.2969,653.8,397.2969,649.8,401.2969,658.8,397.2969" style="stroke:#181818;stroke-width:1;"/><text fill="#000000" font-family="sans-serif" font-size="13" lengthAdjust="spacing" textLength="51.8477" x="503.98" y="393.3638">persiste</text></g><!--link GameData to GraficoBarras--><g class="link" data-entity-1="GameData" data-entity-2="GraficoBarras" data-source-line="44" data-uid="lnk26" id="link_GameData_GraficoBarras"><path codeLine="44" d="M766.58,397.2969 C812.01,397.2969 871.68,397.2969 919.91,397.2969" fill="none" id="GameData-to-GraficoBarras" style="stroke:#181818;stroke-width:1;"/><polygon fill="#181818" points="925.91,397.2969,916.91,393.2969,920.91,397.2969,916.91,401.2969,925.91,397.2969" style="stroke:#181818;stroke-width:1;"/><text fill="#000000" font-family="sans-serif" font-size="13" lengthAdjust="spacing" textLength="57.1543" x="838.19" y="393.3638">alimenta</text></g><!--SRC=[XLF1RXD13BtFLrYza22bfOWBKHMfG8LQAGK9r1CNPzP933lZQCORe7_3Dt3ZcX-hPx9RGbI9qthiP_lvsQkiBS5S6ce5l4HF6-smXL4ZWICBdBz-zNBiMbegg43YrLgXuKHUMQBBtpXkC640tsBEbwg95vtIjPNwnFS4BzoQ6u90kfOcE_SCxYXbtlsEiEI8xHIoMESeYhvw3LnAKOPI5yBkrmyEQDJ21fKNt7A3ZQlTuAPROIC9BYxGgwJPpFM1jn8rITjIShZ8cYoy9mXtJDzxq7iCTFHyXuhzynQtr9jNaGAlf7_DkyY-pDwdKRRMbYZPU7Hg1FMdCUcZ2PVivGscX3QzZKczXhBSSm7up1lBjRctd1LXH5yfR5h9uwa59p2ds5NZLi8YKJLlEZ8-nVg8NSPgNKSRjFE56kNgkR9oZTLaZtj76V73raIXs1J9oRb1mibaLld053Wg5SLsV_1B72dP98sCtLzDuUJy16GogTy-QMKoM6Syez9KBdsveYTpdZ_c95fnMOwhxy9Ws845GqSbTeQr4j-ZSyF2_kbVzcHmkpTbYlG4o1hs6_mlRjZj8T0DoGLOI1u1JU5ogUxHTNewEsZ8ThTUZy8zwI7c3e_eI8TD-LsoxWbNNmKStfMXJA50KV41]--></g></svg>