<svg xmlns="http://www.w3.org/2000/svg" xmlns:xlink="http://www.w3.org/1999/xlink" contentStyleType="text/css" data-diagram-type="CLASS" height="468px" preserveAspectRatio="none" style="width:2111px;height:468px;background:#FFFFFF;" version="1.1" viewBox="0 0 2111 468" width="2111px" zoomAndPan="magnify"><title>MVC del juego: Controlador y Vistas</title><defs/><g><g class="title" data-source-line="1"><text fill="#000000" font-family="sans-serif" font-size="14" font-weight="bold" lengthAdjust="spacing" textLength="284.6553" x="906.6024" y="22.9951">MVC del juego: Controlador y Vistas</text></g><!--cluster Vistas concretas--><g class="cluster" data-entity="Vistas concretas" data-source-line="27" data-uid="ent0004" id="cluster_Vistas concretas"><path d="M723.36,90.6269 L854.7282,90.6269 A3.75,3.75 0 0 1 857.2282,93.1269 L864.2282,112.9237 L2102.36,112.9237 A2.5,2.5 0 0 1 2104.86,115.4237 L2104.86,171.1269 A2.5,2.5 0 0 1 2102.36,173.6269 L723.36,173.6269 A2.5,2.5 0 0 1 720.86,171.1269 L720.86,93.1269 A2.5,2.5 0 0 1 723.36,90.6269" fill="none" style="stroke:#000000;stroke-width:1.5;"/><line style="stroke:#000000;stroke-width:1.5;" x1="720.86" x2="864.2282" y1="112.9237" y2="112.9237"/><text fill="#000000" font-family="sans-serif" font-size="14" font-weight="bold" lengthAdjust="spacing" textLength="130.3682" x="724.86" y="105.622">Vistas concretas</text></g><!--class MenuView--><g class="entity" data-entity="MenuView" data-source-line="28" data-uid="ent0005" id="entity_MenuView"><rect fill="#F1F1F1" height="32" rx="2.5" ry="2.5" style="stroke:#181818;stroke-width:0.5;" width="103.9688" x="736.87" y="125.6269"/><ellipse cx="751.87" cy="141.6269" fill="#ADD1B2" rx="11" ry="11" style="stroke:#181818;stroke-width:1;"/><path d="M754.8388,147.2675 Q754.2606,147.5644 753.62,147.705 Q752.9794,147.8612 752.2763,147.8612 Q749.7763,147.8612 748.4481,146.2206 Q747.1356,144.5644 747.1356,141.4394 Q747.1356,138.3144 748.4481,136.6581 Q749.7763,135.0019 752.2763,135.0019 Q752.9794,135.0019 753.62,135.1581 Q754.2763,135.3144 754.8388,135.6112 L754.8388,138.33 Q754.2138,137.7519 753.62,137.4862 Q753.0263,137.205 752.4013,137.205 Q751.0575,137.205 750.37,138.2831 Q749.6825,139.3456 749.6825,141.4394 Q749.6825,143.5331 750.37,144.6112 Q751.0575,145.6737 752.4013,145.6737 Q753.0263,145.6737 753.62,145.4081 Q754.2138,145.1269 754.8388,144.5487 L754.8388,147.2675 Z " fill="#000000"/><text fill="#000000" font-family="sans-serif" font-size="14" lengthAdjust="spacing" textLength="71.9688" x="765.87" y="146.4736">MenuView</text></g><!--class NombreInputView--><g class="entity" data-entity="NombreInputView" data-source-line="29" data-uid="ent0006" id="entity_NombreInputView"><rect fill="#F1F1F1" height="32" rx="2.5" ry="2.5" style="stroke:#181818;stroke-width:0.5;" width="157.7129" x="876" y="125.6269"/><ellipse cx="891" cy="141.6269" fill="#ADD1B2" rx="11" ry="11" style="stroke:#181818;stroke-width:1;"/><path d="M893.9688,147.2675 Q893.3906,147.5644 892.75,147.705 Q892.1094,147.8612 891.4063,147.8612 Q888.9063,147.8612 887.5781,146.2206 Q886.2656,144.5644 886.2656,141.4394 Q886.2656,138.3144 887.5781,136.6581 Q888.9063,135.0019 891.4063,135.0019 Q892.1094,135.0019 892.75,135.1581 Q893.4063,135.3144 893.9688,135.6112 L893.9688,138.33 Q893.3438,137.7519 892.75,137.4862 Q892.1563,137.205 891.5313,137.205 Q890.1875,137.205 889.5,138.2831 Q888.8125,139.3456 888.8125,141.4394 Q888.8125,143.5331 889.5,144.6112 Q890.1875,145.6737 891.5313,145.6737 Q892.1563,145.6737 892.75,145.4081 Q893.3438,145.1269 893.9688,144.5487 L893.9688,147.2675 Z " fill="#000000"/><text fill="#000000" font-family="sans-serif" font-size="14" lengthAdjust="spacing" textLength="125.7129" x="905" y="146.4736">NombreInputView</text></g><!--class GameView--><g class="entity" data-entity="GameView" data-source-line="30" data-uid="ent0007" id="entity_GameView"><rect fill="#F1F1F1" height="32" rx="2.5" ry="2.5" style="stroke:#181818;stroke-width:0.5;" width="107.209" x="1068.25" y="125.6269"/><ellipse cx="1083.25" cy="141.6269" fill="#ADD1B2" rx="11" ry="11" style="stroke:#181818;stroke-width:1;"/><path d="M1086.2188,147.2675 Q1085.6406,147.5644 1085,147.705 Q1084.3594,147.8612 1083.6563,147.8612 Q1081.1563,147.8612 1079.8281,146.2206 Q1078.5156,144.5644 1078.5156,141.4394 Q1078.5156,138.3144 1079.8281,136.6581 Q1081.1563,135.0019 1083.6563,135.0019 Q1084.3594,135.0019 1085,135.1581 Q1085.6563,135.3144 1086.2188,135.6112 L1086.2188,138.33 Q1085.5938,137.7519 1085,137.4862 Q1084.4063,137.205 1083.7813,137.205 Q1082.4375,137.205 1081.75,138.2831 Q1081.0625,139.3456 1081.0625,141.4394 Q1081.0625,143.5331 1081.75,144.6112 Q1082.4375,145.6737 1083.7813,145.6737 Q1084.4063,145.6737 1085,145.4081 Q1085.5938,145.1269 1086.2188,144.5487 L1086.2188,147.2675 Z " fill="#000000"/><text fill="#000000" font-family="sans-serif" font-size="14" lengthAdjust="spacing" textLength="75.209" x="1097.25" y="146.4736">GameView</text></g><!--class PausaView--><g class="entity" data-entity="PausaView" data-source-line="31" data-uid="ent0008" id="entity_PausaView"><rect fill="#F1F1F1" height="32" rx="2.5" ry="2.5" style="stroke:#181818;stroke-width:0.5;" width="107.2979" x="1210.21" y="125.6269"/><ellipse cx="1225.21" cy="141.6269" fill="#ADD1B2" rx="11" ry="11" style="stroke:#181818;stroke-width:1;"/><path d="M1228.1788,147.2675 Q1227.6006,147.5644 1226.96,147.705 Q1226.3194,147.8612 1225.6163,147.8612 Q1223.1163,147.8612 1221.7881,146.2206 Q1220.4756,144.5644 1220.4756,141.4394 Q1220.4756,138.3144 1221.7881,136.6581 Q1223.1163,135.0019 1225.6163,135.0019 Q1226.3194,135.0019 1226.96,135.1581 Q1227.6163,135.3144 1228.1788,135.6112 L1228.1788,138.33 Q1227.5538,137.7519 1226.96,137.4862 Q1226.3663,137.205 1225.7413,137.205 Q1224.3975,137.205 1223.71,138.2831 Q1223.0225,139.3456 1223.0225,141.4394 Q1223.0225,143.5331 1223.71,144.6112 Q1224.3975,145.6737 1225.7413,145.6737 Q1226.3663,145.6737 1226.96,145.4081 Q1227.5538,145.1269 1228.1788,144.5487 L1228.1788,147.2675 Z " fill="#000000"/><text fill="#000000" font-family="sans-serif" font-size="14" lengthAdjust="spacing" textLength="75.2979" x="1239.21" y="146.4736">PausaView</text></g><!--class InstruccionesView--><g class="entity" data-entity="InstruccionesView" data-source-line="32" data-uid="ent0009" id="entity_InstruccionesView"><rect fill="#F1F1F1" height="32" rx="2.5" ry="2.5" style="stroke:#181818;stroke-width:0.5;" width="158.5742" x="1352.57" y="125.6269"/><ellipse cx="1367.57" cy="141.6269" fill="#ADD1B2" rx="11" ry="11" style="stroke:#181818;stroke-width:1;"/><path d="M1370.5388,147.2675 Q1369.9606,147.5644 1369.32,147.705 Q1368.6794,147.8612 1367.9763,147.8612 Q1365.4763,147.8612 1364.1481,146.2206 Q1362.8356,144.5644 1362.8356,141.4394 Q1362.8356,138.3144 1364.1481,136.6581 Q1365.4763,135.0019 1367.9763,135.0019 Q1368.6794,135.0019 1369.32,135.1581 Q1369.9763,135.3144 1370.5388,135.6112 L1370.5388,138.33 Q1369.9138,137.7519 1369.32,137.4862 Q1368.7263,137.205 1368.1013,137.205 Q1366.7575,137.205 1366.07,138.2831 Q1365.3825,139.3456 1365.3825,141.4394 Q1365.3825,143.5331 1366.07,144.6112 Q1366.7575,145.6737 1368.1013,145.6737 Q1368.7263,145.6737 1369.32,145.4081 Q1369.9138,145.1269 1370.5388,144.5487 L1370.5388,147.2675 Z " fill="#000000"/><text fill="#000000" font-family="sans-serif" font-size="14" lengthAdjust="spacing" textLength="126.5742" x="1381.57" y="146.4736">InstruccionesView</text></g><!--class EstadisticasView--><g class="entity" data-entity="EstadisticasView" data-source-line="33" data-uid="ent0010" id="entity_EstadisticasView"><rect fill="#F1F1F1" height="32" rx="2.5" ry="2.5" style="stroke:#181818;stroke-width:0.5;" width="148.7578" x="1546.48" y="125.6269"/><ellipse cx="1561.48" cy="141.6269" fill="#ADD1B2" rx="11" ry="11" style="stroke:#181818;stroke-width:1;"/><path d="M1564.4488,147.2675 Q1563.8706,147.5644 1563.23,147.705 Q1562.5894,147.8612 1561.8863,147.8612 Q1559.3863,147.8612 1558.0581,146.2206 Q1556.7456,144.5644 1556.7456,141.4394 Q1556.7456,138.3144 1558.0581,136.6581 Q1559.3863,135.0019 1561.8863,135.0019 Q1562.5894,135.0019 1563.23,135.1581 Q1563.8863,135.3144 1564.4488,135.6112 L1564.4488,138.33 Q1563.8238,137.7519 1563.23,137.4862 Q1562.6363,137.205 1562.0113,137.205 Q1560.6675,137.205 1559.98,138.2831 Q1559.2925,139.3456 1559.2925,141.4394 Q1559.2925,143.5331 1559.98,144.6112 Q1560.6675,145.6737 1562.0113,145.6737 Q1562.6363,145.6737 1563.23,145.4081 Q1563.8238,145.1269 1564.4488,144.5487 L1564.4488,147.2675 Z " fill="#000000"/><text fill="#000000" font-family="sans-serif" font-size="14" lengthAdjust="spacing" textLength="116.7578" x="1575.48" y="146.4736">EstadisticasView</text></g><!--class MoreEstadisticasView--><g class="entity" data-entity="MoreEstadisticasView" data-source-line="34" data-uid="ent0011" id="entity_MoreEstadisticasView"><rect fill="#F1F1F1" height="32" rx="2.5" ry="2.5" style="stroke:#181818;stroke-width:0.5;" width="183.7715" x="1729.97" y="125.6269"/><ellipse cx="1744.97" cy="141.6269" fill="#ADD1B2" rx="11" ry="11" style="stroke:#181818;stroke-width:1;"/><path d="M1747.9388,147.2675 Q1747.3606,147.5644 1746.72,147.705 Q1746.0794,147.8612 1745.3763,147.8612 Q1742.8763,147.8612 1741.5481,146.2206 Q1740.2356,144.5644 1740.2356,141.4394 Q1740.2356,138.3144 1741.5481,136.6581 Q1742.8763,135.0019 1745.3763,135.0019 Q1746.0794,135.0019 1746.72,135.1581 Q1747.3763,135.3144 1747.9388,135.6112 L1747.9388,138.33 Q1747.3138,137.7519 1746.72,137.4862 Q1746.1263,137.205 1745.5013,137.205 Q1744.1575,137.205 1743.47,138.2831 Q1742.7825,139.3456 1742.7825,141.4394 Q1742.7825,143.5331 1743.47,144.6112 Q1744.1575,145.6737 1745.5013,145.6737 Q1746.1263,145.6737 1746.72,145.4081 Q1747.3138,145.1269 1747.9388,144.5487 L1747.9388,147.2675 Z " fill="#000000"/><text fill="#000000" font-family="sans-serif" font-size="14" lengthAdjust="spacing" textLength="151.7715" x="1758.97" y="146.4736">MoreEstadisticasView</text></g><!--class GameOverView--><g class="entity" data-entity="GameOverView" data-source-line="35" data-uid="ent0012" id="entity_GameOverView"><rect fill="#F1F1F1" height="32" rx="2.5" ry="2.5" style="stroke:#181818;stroke-width:0.5;" width="140.8828" x="1948.42" y="125.6269"/><ellipse cx="1963.42" cy="141.6269" fill="#ADD1B2" rx="11" ry="11" style="stroke:#181818;stroke-width:1;"/><path d="M1966.3888,147.2675 Q1965.8106,147.5644 1965.17,147.705 Q1964.5294,147.8612 1963.8263,147.8612 Q1961.3263,147.8612 1959.9981,146.2206 Q1958.6856,144.5644 1958.6856,141.4394 Q1958.6856,138.3144 1959.9981,136.6581 Q1961.3263,135.0019 1963.8263,135.0019 Q1964.5294,135.0019 1965.17,135.1581 Q1965.8263,135.3144 1966.3888,135.6112 L1966.3888,138.33 Q1965.7638,137.7519 1965.17,137.4862 Q1964.5763,137.205 1963.9513,137.205 Q1962.6075,137.205 1961.92,138.2831 Q1961.2325,139.3456 1961.2325,141.4394 Q1961.2325,143.5331 1961.92,144.6112 Q1962.6075,145.6737 1963.9513,145.6737 Q1964.5763,145.6737 1965.17,145.4081 Q1965.7638,145.1269 1966.3888,144.5487 L1966.3888,147.2675 Z " fill="#000000"/><text fill="#000000" font-family="sans-serif" font-size="14" lengthAdjust="spacing" textLength="108.8828" x="1977.42" y="146.4736">GameOverView</text></g><!--class View--><g class="entity" data-entity="View" data-source-line="6" data-uid="ent0002" id="entity_View"><rect fill="#F1F1F1" height="145.7813" rx="2.5" ry="2.5" style="stroke:#181818;stroke-width:0.5;" width="308.2012" x="1012.76" y="315.9669"/><ellipse cx="1145.8454" cy="331.9669" fill="#A9DCDF" rx="11" ry="11" style="stroke:#181818;stroke-width:1;"/><path d="M1145.9548,327.3106 L1144.7986,332.3888 L1147.1267,332.3888 L1145.9548,327.3106 Z M1144.4704,325.0763 L1147.4548,325.0763 L1150.8142,337.4669 L1148.3611,337.4669 L1147.5954,334.4044 L1144.3142,334.4044 L1143.5642,337.4669 L1141.1267,337.4669 L1144.4704,325.0763 Z " fill="#000000"/><text fill="#000000" font-family="sans-serif" font-size="14" font-style="italic" lengthAdjust="spacing" textLength="33.5303" x="1166.3454" y="336.8136">View</text><line style="stroke:#181818;stroke-width:0.5;" x1="1013.76" x2="1319.9612" y1="347.9669" y2="347.9669"/><text fill="#000000" font-family="sans-serif" font-size="14" lengthAdjust="spacing" textLength="93.7549" x="1018.76" y="364.962">app : PApplet</text><line style="stroke:#181818;stroke-width:0.5;" x1="1013.76" x2="1319.9612" y1="372.2638" y2="372.2638"/><text fill="#000000" font-family="sans-serif" font-size="14" lengthAdjust="spacing" textLength="96.7422" x="1018.76" y="389.2589">iniciar() : void</text><text fill="#000000" font-family="sans-serif" font-size="14" lengthAdjust="spacing" textLength="122.8486" x="1018.76" y="405.5557">actualizar() : void</text><text fill="#000000" font-family="sans-serif" font-size="14" lengthAdjust="spacing" textLength="102.9287" x="1018.76" y="421.8526">dibujar() : void</text><text fill="#000000" font-family="sans-serif" font-size="14" lengthAdjust="spacing" textLength="286.8838" x="1018.76" y="438.1495">keyPressed(char key, int keyCode) : void</text><text fill="#000000" font-family="sans-serif" font-size="14" lengthAdjust="spacing" textLength="296.2012" x="1018.76" y="454.4464">keyReleased(char key, int keyCode) : void</text></g><!--class Controller--><g class="entity" data-entity="Controller" data-source-line="15" data-uid="ent0003" id="entity_Controller"><rect fill="#F1F1F1" height="194.6719" rx="2.5" ry="2.5" style="stroke:#181818;stroke-width:0.5;" width="391.7158" x="7" y="44.2969"/><ellipse cx="164.0215" cy="60.2969" fill="#ADD1B2" rx="11" ry="11" style="stroke:#181818;stroke-width:1;"/><path d="M166.9902,65.9375 Q166.4121,66.2344 165.7715,66.375 Q165.1309,66.5313 164.4277,66.5313 Q161.9277,66.5313 160.5996,64.8906 Q159.2871,63.2344 159.2871,60.1094 Q159.2871,56.9844 160.5996,55.3281 Q161.9277,53.6719 164.4277,53.6719 Q165.1309,53.6719 165.7715,53.8281 Q166.4277,53.9844 166.9902,54.2813 L166.9902,57 Q166.3652,56.4219 165.7715,56.1563 Q165.1777,55.875 164.5527,55.875 Q163.209,55.875 162.5215,56.9531 Q161.834,58.0156 161.834,60.1094 Q161.834,62.2031 162.5215,63.2813 Q163.209,64.3438 164.5527,64.3438 Q165.1777,64.3438 165.7715,64.0781 Q166.3652,63.7969 166.9902,63.2188 L166.9902,65.9375 Z " fill="#000000"/><text fill="#000000" font-family="sans-serif" font-size="14" lengthAdjust="spacing" textLength="69.1729" x="184.5215" y="65.1436">Controller</text><line style="stroke:#181818;stroke-width:0.5;" x1="8" x2="397.7158" y1="76.2969" y2="76.2969"/><text fill="#000000" font-family="sans-serif" font-size="14" lengthAdjust="spacing" textLength="93.7549" x="13" y="93.292">app : PApplet</text><text fill="#000000" font-family="sans-serif" font-size="14" lengthAdjust="spacing" textLength="161.8682" x="13" y="109.5889">gameData : GameData</text><text fill="#000000" font-family="sans-serif" font-size="14" lengthAdjust="spacing" textLength="226.9395" x="13" y="125.8857">vistas : HashMap&lt;String, View&gt;</text><text fill="#000000" font-family="sans-serif" font-size="14" lengthAdjust="spacing" textLength="138.6807" x="13" y="142.1826">estadoActual : View</text><line style="stroke:#181818;stroke-width:0.5;" x1="8" x2="397.7158" y1="149.4844" y2="149.4844"/><text fill="#000000" font-family="sans-serif" font-size="14" lengthAdjust="spacing" textLength="295.9551" x="13" y="166.4795">cambiarEstado(String nuevoEstado) : void</text><text fill="#000000" font-family="sans-serif" font-size="14" lengthAdjust="spacing" textLength="122.8486" x="13" y="182.7764">actualizar() : void</text><text fill="#000000" font-family="sans-serif" font-size="14" lengthAdjust="spacing" textLength="102.9287" x="13" y="199.0732">dibujar() : void</text><text fill="#000000" font-family="sans-serif" font-size="14" lengthAdjust="spacing" textLength="379.7158" x="13" y="215.3701">manejarTeclaPresionada(char key, int keyCode) : void</text><text fill="#000000" font-family="sans-serif" font-size="14" lengthAdjust="spacing" textLength="355.1133" x="13" y="231.667">manejarTeclaSoltada(char key, int keyCode) : void</text></g><g class="entity" data-entity="GMN23" data-source-line="53" data-uid="ent0024" id="entity_GMN23"><path d="M434.21,106.3669 L434.21,137.6269 L398.9,141.6269 L434.21,145.6269 L434.21,176.8981 A0,0 0 0 0 434.21,176.8981 L701.5054,176.8981 A0,0 0 0 0 701.5054,176.8981 L701.5054,116.3669 L691.5054,106.3669 L434.21,106.3669 A0,0 0 0 0 434.21,106.3669" fill="#FEFFDD" style="stroke:#181818;stroke-width:0.5;"/><path d="M691.5054,106.3669 L691.5054,116.3669 L701.5054,116.3669 L691.5054,106.3669" fill="#FEFFDD" style="stroke:#181818;stroke-width:0.5;"/><text fill="#000000" font-family="sans-serif" font-size="13" lengthAdjust="spacing" textLength="173.7988" x="440.21" y="123.4338">Orquesta el ciclo principal:</text><text fill="#000000" font-family="sans-serif" font-size="13" lengthAdjust="spacing" textLength="213.7319" x="440.21" y="138.5666">- actualizar()/dibujar() delegados</text><text fill="#000000" font-family="sans-serif" font-size="13" lengthAdjust="spacing" textLength="246.2954" x="440.21" y="153.6994">- Enrutamiento de eventos de teclado</text><text fill="#000000" font-family="sans-serif" font-size="13" lengthAdjust="spacing" textLength="168.0796" x="440.21" y="168.8322">- Gesti&#243;n de estadoActual</text></g><!--link MenuView to View--><g class="link" data-entity-1="MenuView" data-entity-2="View" data-source-line="39" data-uid="lnk13" id="link_MenuView_View"><path codeLine="39" d="M796.72,157.7869 C808.07,178.4269 830.78,215.4969 858.86,238.9669 C903.97,276.6769 943.8553,300.0662 995.9253,323.6662" fill="none" id="MenuView-to-View" style="stroke:#181818;stroke-width:1;"/><polygon fill="none" points="1012.32,331.0969,998.4022,318.2013,993.4484,329.1311,1012.32,331.0969" style="stroke:#181818;stroke-width:1;"/></g><!--link NombreInputView to View--><g class="link" data-entity-1="NombreInputView" data-entity-2="View" data-source-line="40" data-uid="lnk14" id="link_NombreInputView_View"><path codeLine="40" d="M968.12,157.9669 C994.86,188.9069 1044.9879,246.8901 1092.6579,302.0301" fill="none" id="NombreInputView-to-View" style="stroke:#181818;stroke-width:1;"/><polygon fill="none" points="1104.43,315.6469,1097.1968,298.106,1088.119,305.9541,1104.43,315.6469" style="stroke:#181818;stroke-width:1;"/></g><!--link GameView to View--><g class="link" data-entity-1="GameView" data-entity-2="View" data-source-line="41" data-uid="lnk15" id="link_GameView_View"><path codeLine="41" d="M1124.67,157.9669 C1130.35,188.9069 1140.2407,242.8026 1150.3607,297.9426" fill="none" id="GameView-to-View" style="stroke:#181818;stroke-width:1;"/><polygon fill="none" points="1153.61,315.6469,1156.2621,296.8595,1144.4593,299.0257,1153.61,315.6469" style="stroke:#181818;stroke-width:1;"/></g><!--link PausaView to View--><g class="link" data-entity-1="PausaView" data-entity-2="View" data-source-line="42" data-uid="lnk16" id="link_PausaView_View"><path codeLine="42" d="M1257.79,157.9669 C1245.55,188.9069 1223.8506,243.7687 1202.0406,298.9087" fill="none" id="PausaView-to-View" style="stroke:#181818;stroke-width:1;"/><polygon fill="none" points="1195.42,315.6469,1207.62,301.1155,1196.4612,296.7018,1195.42,315.6469" style="stroke:#181818;stroke-width:1;"/></g><!--link InstruccionesView to View--><g class="link" data-entity-1="InstruccionesView" data-entity-2="View" data-source-line="43" data-uid="lnk17" id="link_InstruccionesView_View"><path codeLine="43" d="M1417,157.9169 C1398.18,177.1469 1364.63,211.0369 1334.86,238.9669 C1307.72,264.4369 1290.9348,279.7051 1263.6548,303.7851" fill="none" id="InstruccionesView-to-View" style="stroke:#181818;stroke-width:1;"/><polygon fill="none" points="1250.16,315.6969,1267.6254,308.2833,1259.6842,299.2868,1250.16,315.6969" style="stroke:#181818;stroke-width:1;"/></g><!--link EstadisticasView to View--><g class="link" data-entity-1="EstadisticasView" data-entity-2="View" data-source-line="44" data-uid="lnk18" id="link_EstadisticasView_View"><path codeLine="44" d="M1609.64,157.8969 C1593.7,178.6669 1562.66,215.8769 1528.86,238.9669 C1465.73,282.0869 1405.0852,309.8852 1337.9752,334.4252" fill="none" id="EstadisticasView-to-View" style="stroke:#181818;stroke-width:1;"/><polygon fill="none" points="1321.07,340.6069,1340.0358,340.0602,1335.9147,328.7901,1321.07,340.6069" style="stroke:#181818;stroke-width:1;"/></g><!--link MoreEstadisticasView to View--><g class="link" data-entity-1="MoreEstadisticasView" data-entity-2="View" data-source-line="45" data-uid="lnk19" id="link_MoreEstadisticasView_View"><path codeLine="45" d="M1808.68,158.0669 C1789.66,179.3769 1752.42,217.6069 1712.86,238.9669 C1589.76,305.4169 1452.4043,340.7036 1339.0043,361.8736" fill="none" id="MoreEstadisticasView-to-View" style="stroke:#181818;stroke-width:1;"/><polygon fill="none" points="1321.31,365.1769,1340.1054,367.7717,1337.9032,355.9755,1321.31,365.1769" style="stroke:#181818;stroke-width:1;"/></g><!--link GameOverView to View--><g class="link" data-entity-1="GameOverView" data-entity-2="View" data-source-line="46" data-uid="lnk20" id="link_GameOverView_View"><path codeLine="46" d="M2009.6,157.7869 C1995.47,179.4869 1966.41,219.0069 1930.86,238.9669 C1739.23,346.5369 1500.7264,376.6047 1339.1264,384.8947" fill="none" id="GameOverView-to-View" style="stroke:#181818;stroke-width:1;"/><polygon fill="none" points="1321.15,385.8169,1339.4338,390.8868,1338.819,378.9026,1321.15,385.8169" style="stroke:#181818;stroke-width:1;"/></g><!--reverse link Controller to View--><g class="link" data-entity-1="Controller" data-entity-2="View" data-source-line="49" data-uid="lnk21" id="link_Controller_View"><path codeLine="49" d="M410.1453,236.3896 C416.1453,238.7996 410.97,236.6869 416.86,238.9669 C614.63,315.5069 857.63,354.4969 1012.39,372.9969" fill="none" id="Controller-backto-View" style="stroke:#181818;stroke-width:1;"/><polygon fill="none" points="399.01,231.9169,403.0868,237.865,410.1453,236.3896,406.0685,230.4414,399.01,231.9169" style="stroke:#181818;stroke-width:1;"/><text fill="#000000" font-family="sans-serif" font-size="13" lengthAdjust="spacing" textLength="84.9951" x="556.86" y="282.0338">estadoActual</text><text fill="#000000" font-family="sans-serif" font-size="13" lengthAdjust="spacing" textLength="8.271" x="406.8337" y="232.2201">1</text><text fill="#000000" font-family="sans-serif" font-size="13" lengthAdjust="spacing" textLength="8.271" x="996.7206" y="368.9355">1</text></g><!--reverse link Controller to View--><g class="link" data-entity-1="Controller" data-entity-2="View" data-source-line="50" data-uid="lnk22" id="link_Controller_View"><path codeLine="50" d="M410.5201,237.272 C416.4701,239.192 410.98,237.3069 416.86,238.9669 C517.33,267.3669 547.08,250.5769 649.86,268.9669 C772.59,290.9269 910.09,322.9069 1012.42,348.1669" fill="none" id="Controller-backto-View-1" style="stroke:#181818;stroke-width:1;"/><polygon fill="none" points="399.1,233.5869,403.5817,239.2362,410.5201,237.272,406.0385,231.6227,399.1,233.5869" style="stroke:#181818;stroke-width:1;"/><text fill="#000000" font-family="sans-serif" font-size="13" lengthAdjust="spacing" textLength="37.9146" x="735.86" y="282.0338">vistas</text><text fill="#000000" font-family="sans-serif" font-size="13" lengthAdjust="spacing" textLength="8.271" x="406.9272" y="249.5413">1</text><text fill="#000000" font-family="sans-serif" font-size="13" lengthAdjust="spacing" textLength="6.5" x="998.3149" y="342.7524">*</text></g><!--SRC=[dLJ1RXCn4BtlLuno8Q16m3L2bQ9GjJc4HWJrFh6d6pTUszZUHIdmLNm2FyROsxJU41I9qyw-URRVl7thgA8cMDxDGPA6XvPgEuMvDT5RZT9wsCET2X535NRAEFJOWD0OmYn6hpPjf8MmPgqU2TvLMoK9g75n3_UAj0mbqb3SMeOgt8JeKSH-7zwUli7t2W2TWociPivfYlokZ18A_VWrevrLCb54R56hno4gMSV34DhHVkKf199ZiKMVtYzumvYAkPKqf7ucJNYU-xEgUibF_cZo9uNNsD17ZCZWzLF9Q9TjPEm6mtQ9xiEQ3JJrHJRWaWd4VMbdUKIc9PXHWSs6NRZApN6_1anBdUsX_t6dGKCCVI4U9zcah469PvqgbwsjZkVNi6CEnGvhWb4V8-2q24zSZR9tlQ5BCkrXtWnyiit6qyAuDWxmvES0M64RS80i3CUh5OA7eZ3ePCDOXH8uR2ojftysqv6t7VaCya2lu8Oy6OvcTP0DaycFo_w37GalEWVf1VGili3-ab_qZZKMhLCZ71r-6AA0UHZEFlQ7fNaxgefmZzwFm4uc-PbNJWSXFKbzyqpj0rzLnaO2h-fj17jV_3liyAt_sgOTWUyUeOIsu3ZVGZdKKsvF1f5- -v9algkePXqXawwCRoCsYaoqaEwRBbKXbJ5bLTfCk-QJrEzV9bFACSX8I2B_0000]--></g></svg>