<svg xmlns="http://www.w3.org/2000/svg" xmlns:xlink="http://www.w3.org/1999/xlink" contentStyleType="text/css" data-diagram-type="SEQUENCE" height="814px" preserveAspectRatio="none" style="width:880px;height:814px;background:#FFFFFF;" version="1.1" viewBox="0 0 880 814" width="880px" zoomAndPan="magnify"><title>Interacci&#243;n Controlador &#8596; Vista (entrada y render)</title><defs/><g><text fill="#000000" font-family="sans-serif" font-size="14" font-weight="bold" lengthAdjust="spacing" textLength="400.3262" x="236.198" y="27.9951">Interacci&#243;n Controlador &#8596; Vista (entrada y render)</text><rect fill="none" height="133.6641" style="stroke:#000000;stroke-width:1.5;" width="669.4053" x="194.3169" y="309.2578"/><g><title>Jugador</title><rect fill="#000000" fill-opacity="0.00000" height="615.3906" width="8" x="30.8379" y="118.5938"/><line style="stroke:#181818;stroke-width:0.5;stroke-dasharray:5,5;" x1="34" x2="34" y1="118.5938" y2="733.9844"/></g><g><title>PApplet</title><rect fill="#000000" fill-opacity="0.00000" height="615.3906" width="8" x="235.8159" y="118.5938"/><line style="stroke:#181818;stroke-width:0.5;stroke-dasharray:5,5;" x1="239.3169" x2="239.3169" y1="118.5938" y2="733.9844"/></g><g><title>Controller</title><rect fill="#000000" fill-opacity="0.00000" height="615.3906" width="8" x="518.3433" y="118.5938"/><line style="stroke:#181818;stroke-width:0.5;stroke-dasharray:5,5;" x1="521.7568" x2="521.7568" y1="118.5938" y2="733.9844"/></g><g><title>estadoActual. View</title><rect fill="#000000" fill-opacity="0.00000" height="615.3906" width="8" x="775.6069" y="118.5938"/><line style="stroke:#181818;stroke-width:0.5;stroke-dasharray:5,5;" x1="779.4917" x2="779.4917" y1="118.5938" y2="733.9844"/></g><g class="participant participant-head" data-participant="Player"><text fill="#000000" font-family="sans-serif" font-size="14" lengthAdjust="spacing" textLength="53.6758" x="5" y="115.292">Jugador</text><ellipse cx="34.8379" cy="50.7969" fill="#E2E2F0" rx="8" ry="8" style="stroke:#181818;stroke-width:0.5;"/><path d="M34.8379,58.7969 L34.8379,85.7969 M21.8379,66.7969 L47.8379,66.7969 M34.8379,85.7969 L21.8379,100.7969 M34.8379,85.7969 L47.8379,100.7969" fill="none" style="stroke:#181818;stroke-width:0.5;"/></g><g class="participant participant-tail" data-participant="Player"><text fill="#000000" font-family="sans-serif" font-size="14" lengthAdjust="spacing" textLength="53.6758" x="5" y="745.9795">Jugador</text><ellipse cx="34.8379" cy="757.7813" fill="#E2E2F0" rx="8" ry="8" style="stroke:#181818;stroke-width:0.5;"/><path d="M34.8379,765.7813 L34.8379,792.7813 M21.8379,773.7813 L47.8379,773.7813 M34.8379,792.7813 L21.8379,807.7813 M34.8379,792.7813 L47.8379,807.7813" fill="none" style="stroke:#181818;stroke-width:0.5;"/></g><g class="participant participant-head" data-participant="App"><rect fill="#E2E2F0" height="46.5938" rx="2.5" ry="2.5" style="stroke:#181818;stroke-width:0.5;" width="70.998" x="204.3169" y="71"/><text fill="#000000" font-family="sans-serif" font-size="14" lengthAdjust="spacing" textLength="53.7852" x="212.9233" y="90.9951">PApplet</text><text fill="#000000" font-family="sans-serif" font-size="14" lengthAdjust="spacing" textLength="56.998" x="211.3169" y="107.292">(sketch)</text></g><g class="participant participant-tail" data-participant="App"><rect fill="#E2E2F0" height="46.5938" rx="2.5" ry="2.5" style="stroke:#181818;stroke-width:0.5;" width="70.998" x="204.3169" y="732.9844"/><text fill="#000000" font-family="sans-serif" font-size="14" lengthAdjust="spacing" textLength="53.7852" x="212.9233" y="752.9795">PApplet</text><text fill="#000000" font-family="sans-serif" font-size="14" lengthAdjust="spacing" textLength="56.998" x="211.3169" y="769.2764">(sketch)</text></g><g class="participant participant-head" data-participant="Controller"><rect fill="#E2E2F0" height="30.2969" rx="2.5" ry="2.5" style="stroke:#181818;stroke-width:0.5;" width="83.1729" x="480.7568" y="87.2969"/><text fill="#000000" font-family="sans-serif" font-size="14" lengthAdjust="spacing" textLength="69.1729" x="487.7568" y="107.292">Controller</text></g><g class="participant participant-tail" data-participant="Controller"><rect fill="#E2E2F0" height="30.2969" rx="2.5" ry="2.5" style="stroke:#181818;stroke-width:0.5;" width="83.1729" x="480.7568" y="732.9844"/><text fill="#000000" font-family="sans-serif" font-size="14" lengthAdjust="spacing" textLength="69.1729" x="487.7568" y="752.9795">Controller</text></g><g class="participant participant-head" data-participant="ViewI"><rect fill="#E2E2F0" height="30.2969" rx="2.5" ry="2.5" style="stroke:#181818;stroke-width:0.5;" width="148.2305" x="705.4917" y="87.2969"/><text fill="#000000" font-family="sans-serif" font-size="14" lengthAdjust="spacing" textLength="134.2305" x="712.4917" y="107.292">estadoActual: View</text></g><g class="participant participant-tail" data-participant="ViewI"><rect fill="#E2E2F0" height="30.2969" rx="2.5" ry="2.5" style="stroke:#181818;stroke-width:0.5;" width="148.2305" x="705.4917" y="732.9844"/><text fill="#000000" font-family="sans-serif" font-size="14" lengthAdjust="spacing" textLength="134.2305" x="712.4917" y="752.9795">estadoActual: View</text></g><rect fill="#EEEEEE" height="3" style="stroke:#EEEEEE;stroke-width:1;" width="873.7222" x="0" y="149.1602"/><line style="stroke:#000000;stroke-width:1;" x1="0" x2="873.7222" y1="149.1602" y2="149.1602"/><line style="stroke:#000000;stroke-width:1;" x1="0" x2="873.7222" y1="152.1602" y2="152.1602"/><rect fill="#EEEEEE" height="23.1328" style="stroke:#000000;stroke-width:2;" width="157.5142" x="358.104" y="138.5938"/><text fill="#000000" font-family="sans-serif" font-size="13" font-weight="bold" lengthAdjust="spacing" textLength="138.9883" x="364.104" y="154.6606">Entrada de teclado</text><g class="message" data-participant-1="Player" data-participant-2="App"><polygon fill="#181818" points="227.8159,188.8594,237.8159,192.8594,227.8159,196.8594,231.8159,192.8594" style="stroke:#181818;stroke-width:1;"/><line style="stroke:#181818;stroke-width:1;" x1="34.8379" x2="233.8159" y1="192.8594" y2="192.8594"/><text fill="#000000" font-family="sans-serif" font-size="13" lengthAdjust="spacing" textLength="172.3262" x="41.8379" y="187.7935">keyPressed(key, keyCode)</text></g><g class="message" data-participant-1="App" data-participant-2="Controller"><polygon fill="#181818" points="510.3433,217.9922,520.3433,221.9922,510.3433,225.9922,514.3433,221.9922" style="stroke:#181818;stroke-width:1;"/><line style="stroke:#181818;stroke-width:1;" x1="239.8159" x2="516.3433" y1="221.9922" y2="221.9922"/><text fill="#000000" font-family="sans-serif" font-size="13" lengthAdjust="spacing" textLength="258.5273" x="246.8159" y="216.9263">manejarTeclaPresionada(key, keyCode)</text></g><g class="message" data-participant-1="Controller" data-participant-2="ViewI"><polygon fill="#181818" points="767.6069,247.125,777.6069,251.125,767.6069,255.125,771.6069,251.125" style="stroke:#181818;stroke-width:1;"/><line style="stroke:#181818;stroke-width:1;" x1="522.3433" x2="773.6069" y1="251.125" y2="251.125"/><text fill="#000000" font-family="sans-serif" font-size="13" lengthAdjust="spacing" textLength="172.3262" x="529.3433" y="246.0591">keyPressed(key, keyCode)</text></g><rect fill="#EEEEEE" height="3" style="stroke:#EEEEEE;stroke-width:1;" width="873.7222" x="0" y="279.6914"/><line style="stroke:#000000;stroke-width:1;" x1="0" x2="873.7222" y1="279.6914" y2="279.6914"/><line style="stroke:#000000;stroke-width:1;" x1="0" x2="873.7222" y1="282.6914" y2="282.6914"/><rect fill="#EEEEEE" height="23.1328" style="stroke:#000000;stroke-width:2;" width="135.5703" x="369.0759" y="269.125"/><text fill="#000000" font-family="sans-serif" font-size="13" font-weight="bold" lengthAdjust="spacing" textLength="117.0444" x="375.0759" y="285.1919">Bucle por frame</text><path d="M194.3169,309.2578 L270.9409,309.2578 L270.9409,316.3906 L260.9409,326.3906 L194.3169,326.3906 L194.3169,309.2578" fill="#EEEEEE" style="stroke:#000000;stroke-width:1.5;"/><rect fill="none" height="133.6641" style="stroke:#000000;stroke-width:1.5;" width="669.4053" x="194.3169" y="309.2578"/><text fill="#000000" font-family="sans-serif" font-size="13" font-weight="bold" lengthAdjust="spacing" textLength="31.624" x="209.3169" y="322.3247">loop</text><text fill="#000000" font-family="sans-serif" font-size="11" font-weight="bold" lengthAdjust="spacing" textLength="79.6802" x="285.9409" y="321.4683">[cada frame]</text><g class="message" data-participant-1="App" data-participant-2="Controller"><polygon fill="#181818" points="510.3433,343.5234,520.3433,347.5234,510.3433,351.5234,514.3433,347.5234" style="stroke:#181818;stroke-width:1;"/><line style="stroke:#181818;stroke-width:1;" x1="239.8159" x2="516.3433" y1="347.5234" y2="347.5234"/><text fill="#000000" font-family="sans-serif" font-size="13" lengthAdjust="spacing" textLength="73.9185" x="246.8159" y="342.4575">actualizar()</text></g><g class="message" data-participant-1="Controller" data-participant-2="ViewI"><polygon fill="#181818" points="767.6069,372.6563,777.6069,376.6563,767.6069,380.6563,771.6069,376.6563" style="stroke:#181818;stroke-width:1;"/><line style="stroke:#181818;stroke-width:1;" x1="522.3433" x2="773.6069" y1="376.6563" y2="376.6563"/><text fill="#000000" font-family="sans-serif" font-size="13" lengthAdjust="spacing" textLength="73.9185" x="529.3433" y="371.5903">actualizar()</text></g><g class="message" data-participant-1="App" data-participant-2="Controller"><polygon fill="#181818" points="510.3433,401.7891,520.3433,405.7891,510.3433,409.7891,514.3433,405.7891" style="stroke:#181818;stroke-width:1;"/><line style="stroke:#181818;stroke-width:1;" x1="239.8159" x2="516.3433" y1="405.7891" y2="405.7891"/><text fill="#000000" font-family="sans-serif" font-size="13" lengthAdjust="spacing" textLength="55.4214" x="246.8159" y="400.7231">dibujar()</text></g><g class="message" data-participant-1="Controller" data-participant-2="ViewI"><polygon fill="#181818" points="767.6069,430.9219,777.6069,434.9219,767.6069,438.9219,771.6069,434.9219" style="stroke:#181818;stroke-width:1;"/><line style="stroke:#181818;stroke-width:1;" x1="522.3433" x2="773.6069" y1="434.9219" y2="434.9219"/><text fill="#000000" font-family="sans-serif" font-size="13" lengthAdjust="spacing" textLength="55.4214" x="529.3433" y="429.856">dibujar()</text></g><rect fill="#EEEEEE" height="3" style="stroke:#EEEEEE;stroke-width:1;" width="873.7222" x="0" y="470.4883"/><line style="stroke:#000000;stroke-width:1;" x1="0" x2="873.7222" y1="470.4883" y2="470.4883"/><line style="stroke:#000000;stroke-width:1;" x1="0" x2="873.7222" y1="473.4883" y2="473.4883"/><rect fill="#EEEEEE" height="23.1328" style="stroke:#000000;stroke-width:2;" width="121.9673" x="375.8774" y="459.9219"/><text fill="#000000" font-family="sans-serif" font-size="13" font-weight="bold" lengthAdjust="spacing" textLength="103.4414" x="381.8774" y="475.9888">Tecla liberada</text><g class="message" data-participant-1="Player" data-participant-2="App"><polygon fill="#181818" points="227.8159,510.1875,237.8159,514.1875,227.8159,518.1875,231.8159,514.1875" style="stroke:#181818;stroke-width:1;"/><line style="stroke:#181818;stroke-width:1;" x1="34.8379" x2="233.8159" y1="514.1875" y2="514.1875"/><text fill="#000000" font-family="sans-serif" font-size="13" lengthAdjust="spacing" textLength="180.978" x="41.8379" y="509.1216">keyReleased(key, keyCode)</text></g><g class="message" data-participant-1="App" data-participant-2="Controller"><polygon fill="#181818" points="510.3433,539.3203,520.3433,543.3203,510.3433,547.3203,514.3433,543.3203" style="stroke:#181818;stroke-width:1;"/><line style="stroke:#181818;stroke-width:1;" x1="239.8159" x2="516.3433" y1="543.3203" y2="543.3203"/><text fill="#000000" font-family="sans-serif" font-size="13" lengthAdjust="spacing" textLength="235.6821" x="246.8159" y="538.2544">manejarTeclaSoltada(key, keyCode)</text></g><g class="message" data-participant-1="Controller" data-participant-2="ViewI"><polygon fill="#181818" points="767.6069,568.4531,777.6069,572.4531,767.6069,576.4531,771.6069,572.4531" style="stroke:#181818;stroke-width:1;"/><line style="stroke:#181818;stroke-width:1;" x1="522.3433" x2="773.6069" y1="572.4531" y2="572.4531"/><text fill="#000000" font-family="sans-serif" font-size="13" lengthAdjust="spacing" textLength="180.978" x="529.3433" y="567.3872">keyReleased(key, keyCode)</text></g><rect fill="#EEEEEE" height="3" style="stroke:#EEEEEE;stroke-width:1;" width="873.7222" x="0" y="601.0195"/><line style="stroke:#000000;stroke-width:1;" x1="0" x2="873.7222" y1="601.0195" y2="601.0195"/><line style="stroke:#000000;stroke-width:1;" x1="0" x2="873.7222" y1="604.0195" y2="604.0195"/><rect fill="#EEEEEE" height="23.1328" style="stroke:#000000;stroke-width:2;" width="214.1289" x="329.7966" y="590.4531"/><text fill="#000000" font-family="sans-serif" font-size="13" font-weight="bold" lengthAdjust="spacing" textLength="195.603" x="335.7966" y="606.52">Cambio de vista (opcional)</text><g class="message" data-participant-1="ViewI" data-participant-2="Controller"><polygon fill="#181818" points="533.3433,640.7188,523.3433,644.7188,533.3433,648.7188,529.3433,644.7188" style="stroke:#181818;stroke-width:1;"/><line style="stroke:#181818;stroke-width:1;" x1="527.3433" x2="778.6069" y1="644.7188" y2="644.7188"/><text fill="#000000" font-family="sans-serif" font-size="13" lengthAdjust="spacing" textLength="233.2637" x="539.3433" y="639.6528">solicitar cambiarEstado("otraVista")</text></g><g class="message" data-participant-1="Controller" data-participant-2="Controller"><line style="stroke:#181818;stroke-width:1;" x1="522.3433" x2="564.3433" y1="673.8516" y2="673.8516"/><line style="stroke:#181818;stroke-width:1;" x1="564.3433" x2="564.3433" y1="673.8516" y2="686.8516"/><line style="stroke:#181818;stroke-width:1;" x1="523.3433" x2="564.3433" y1="686.8516" y2="686.8516"/><polygon fill="#181818" points="533.3433,682.8516,523.3433,686.8516,533.3433,690.8516,529.3433,686.8516" style="stroke:#181818;stroke-width:1;"/><text fill="#000000" font-family="sans-serif" font-size="13" lengthAdjust="spacing" textLength="178.0137" x="529.3433" y="668.7856">cambiarEstado("otraVista")</text></g><g class="message" data-participant-1="Controller" data-participant-2="ViewI"><polygon fill="#181818" points="767.6069,711.9844,777.6069,715.9844,767.6069,719.9844,771.6069,715.9844" style="stroke:#181818;stroke-width:1;"/><line style="stroke:#181818;stroke-width:1;" x1="522.3433" x2="773.6069" y1="715.9844" y2="715.9844"/><text fill="#000000" font-family="sans-serif" font-size="13" lengthAdjust="spacing" textLength="184.4692" x="529.3433" y="710.9185">iniciar()  # de la nueva vista</text></g><!--SRC=[bP91JiCm44NtFiKeR189Bb0fIANgegmgGApOJEq1tBfsv3X5vG2SW9jm16x2IPXnYqgZjeATu_pl__mzoIP7CF698cfjFpyyZ89FCJWq8SBNsplSspOXbCIxQ13M4CaRYfLIg1DhhhkdhCKMfWxN55M3CLbj6_G9YkcmQHob1r-s2qhwkIf4oPjxicsewxk9iqqOwjIX6p0AlMIxB2PArJMCjrY6894MQgXhjG61Yqi9WW4iQ3sDrBPaIbwUo_Se6AgK_6RLBfx5I_GqntWdnudB1iy9FUCl1_ippwaSGRtgD7VTS5MF4PSad2w41hJmvoq5S0W8y_NjAyQoOidXw3tHaOECdNNpawVi5Fp8cJhN0CxEAFTykDmRSeJ_R_SskFIFQe-a2EK8bpCRP0fMct4DZPPtSvKGRyxeaxJ1yPmbZFm2xCOupiDM5e57AazzqOVPy__PzNC5wpbFoWKu4rJkrNUqmWtpDm00]--></g></svg>