<svg xmlns="http://www.w3.org/2000/svg" xmlns:xlink="http://www.w3.org/1999/xlink" contentStyleType="text/css" data-diagram-type="SEQUENCE" height="1031px" preserveAspectRatio="none" style="width:1195px;height:1031px;background:#FFFFFF;" version="1.1" viewBox="0 0 1195 1031" width="1195px" zoomAndPan="magnify"><title>Flujo de estados: Men&#250; &#8594; Nombre &#8594; Juego &#8594; Pausa &#8594; Juego</title><defs/><g><text fill="#000000" font-family="sans-serif" font-size="14" font-weight="bold" lengthAdjust="spacing" textLength="468.1182" x="359.8604" y="27.9951">Flujo de estados: Men&#250; &#8594; Nombre &#8594; Juego &#8594; Pausa &#8594; Juego</text><g><title>Jugador</title><rect fill="#000000" fill-opacity="0.00000" height="832.4531" width="8" x="30.8379" y="118.5938"/><line style="stroke:#181818;stroke-width:0.5;stroke-dasharray:5,5;" x1="34" x2="34" y1="118.5938" y2="951.0469"/></g><g><title>PApplet</title><rect fill="#000000" fill-opacity="0.00000" height="832.4531" width="8" x="218.8296" y="118.5938"/><line style="stroke:#181818;stroke-width:0.5;stroke-dasharray:5,5;" x1="222.3306" x2="222.3306" y1="118.5938" y2="951.0469"/></g><g><title>Controller</title><rect fill="#000000" fill-opacity="0.00000" height="832.4531" width="8" x="456.498" y="118.5938"/><line style="stroke:#181818;stroke-width:0.5;stroke-dasharray:5,5;" x1="459.9116" x2="459.9116" y1="118.5938" y2="951.0469"/></g><g><title>MenuView</title><rect fill="#000000" fill-opacity="0.00000" height="832.4531" width="8" x="650.2598" y="118.5938"/><line style="stroke:#181818;stroke-width:0.5;stroke-dasharray:5,5;" x1="653.2754" x2="653.2754" y1="118.5938" y2="951.0469"/></g><g><title>NombreInputView</title><rect fill="#000000" fill-opacity="0.00000" height="832.4531" width="8" x="773.1006" y="118.5938"/><line style="stroke:#181818;stroke-width:0.5;stroke-dasharray:5,5;" x1="776.2441" x2="776.2441" y1="118.5938" y2="951.0469"/></g><g><title>GameView</title><rect fill="#000000" fill-opacity="0.00000" height="832.4531" width="8" x="897.5615" y="118.5938"/><line style="stroke:#181818;stroke-width:0.5;stroke-dasharray:5,5;" x1="900.957" x2="900.957" y1="118.5938" y2="951.0469"/></g><g><title>PausaView</title><rect fill="#000000" fill-opacity="0.00000" height="832.4531" width="8" x="1036.0835" y="118.5938"/><line style="stroke:#181818;stroke-width:0.5;stroke-dasharray:5,5;" x1="1039.4346" x2="1039.4346" y1="118.5938" y2="951.0469"/></g><g><title>GameData</title><rect fill="#000000" fill-opacity="0.00000" height="832.4531" width="8" x="1135.2856" y="118.5938"/><line style="stroke:#181818;stroke-width:0.5;stroke-dasharray:5,5;" x1="1138.7324" x2="1138.7324" y1="118.5938" y2="951.0469"/></g><g class="participant participant-head" data-participant="Player"><text fill="#000000" font-family="sans-serif" font-size="14" lengthAdjust="spacing" textLength="53.6758" x="5" y="115.292">Jugador</text><ellipse cx="34.8379" cy="50.7969" fill="#E2E2F0" rx="8" ry="8" style="stroke:#181818;stroke-width:0.5;"/><path d="M34.8379,58.7969 L34.8379,85.7969 M21.8379,66.7969 L47.8379,66.7969 M34.8379,85.7969 L21.8379,100.7969 M34.8379,85.7969 L47.8379,100.7969" fill="none" style="stroke:#181818;stroke-width:0.5;"/></g><g class="participant participant-tail" data-participant="Player"><text fill="#000000" font-family="sans-serif" font-size="14" lengthAdjust="spacing" textLength="53.6758" x="5" y="963.042">Jugador</text><ellipse cx="34.8379" cy="974.8438" fill="#E2E2F0" rx="8" ry="8" style="stroke:#181818;stroke-width:0.5;"/><path d="M34.8379,982.8438 L34.8379,1009.8438 M21.8379,990.8438 L47.8379,990.8438 M34.8379,1009.8438 L21.8379,1024.8438 M34.8379,1009.8438 L47.8379,1024.8438" fill="none" style="stroke:#181818;stroke-width:0.5;"/></g><g class="participant participant-head" data-participant="App"><rect fill="#E2E2F0" height="46.5938" rx="2.5" ry="2.5" style="stroke:#181818;stroke-width:0.5;" width="70.998" x="187.3306" y="71"/><text fill="#000000" font-family="sans-serif" font-size="14" lengthAdjust="spacing" textLength="53.7852" x="195.937" y="90.9951">PApplet</text><text fill="#000000" font-family="sans-serif" font-size="14" lengthAdjust="spacing" textLength="56.998" x="194.3306" y="107.292">(sketch)</text></g><g class="participant participant-tail" data-participant="App"><rect fill="#E2E2F0" height="46.5938" rx="2.5" ry="2.5" style="stroke:#181818;stroke-width:0.5;" width="70.998" x="187.3306" y="950.0469"/><text fill="#000000" font-family="sans-serif" font-size="14" lengthAdjust="spacing" textLength="53.7852" x="195.937" y="970.042">PApplet</text><text fill="#000000" font-family="sans-serif" font-size="14" lengthAdjust="spacing" textLength="56.998" x="194.3306" y="986.3389">(sketch)</text></g><g class="participant participant-head" data-participant="Controller"><rect fill="#E2E2F0" height="30.2969" rx="2.5" ry="2.5" style="stroke:#181818;stroke-width:0.5;" width="83.1729" x="418.9116" y="87.2969"/><text fill="#000000" font-family="sans-serif" font-size="14" lengthAdjust="spacing" textLength="69.1729" x="425.9116" y="107.292">Controller</text></g><g class="participant participant-tail" data-participant="Controller"><rect fill="#E2E2F0" height="30.2969" rx="2.5" ry="2.5" style="stroke:#181818;stroke-width:0.5;" width="83.1729" x="418.9116" y="950.0469"/><text fill="#000000" font-family="sans-serif" font-size="14" lengthAdjust="spacing" textLength="69.1729" x="425.9116" y="970.042">Controller</text></g><g class="participant participant-head" data-participant="MenuView"><rect fill="#E2E2F0" height="30.2969" rx="2.5" ry="2.5" style="stroke:#181818;stroke-width:0.5;" width="85.9688" x="611.2754" y="87.2969"/><text fill="#000000" font-family="sans-serif" font-size="14" lengthAdjust="spacing" textLength="71.9688" x="618.2754" y="107.292">MenuView</text></g><g class="participant participant-tail" data-participant="MenuView"><rect fill="#E2E2F0" height="30.2969" rx="2.5" ry="2.5" style="stroke:#181818;stroke-width:0.5;" width="85.9688" x="611.2754" y="950.0469"/><text fill="#000000" font-family="sans-serif" font-size="14" lengthAdjust="spacing" textLength="71.9688" x="618.2754" y="970.042">MenuView</text></g><g class="participant participant-head" data-participant="NombreInputView"><rect fill="#E2E2F0" height="30.2969" rx="2.5" ry="2.5" style="stroke:#181818;stroke-width:0.5;" width="139.7129" x="707.2441" y="87.2969"/><text fill="#000000" font-family="sans-serif" font-size="14" lengthAdjust="spacing" textLength="125.7129" x="714.2441" y="107.292">NombreInputView</text></g><g class="participant participant-tail" data-participant="NombreInputView"><rect fill="#E2E2F0" height="30.2969" rx="2.5" ry="2.5" style="stroke:#181818;stroke-width:0.5;" width="139.7129" x="707.2441" y="950.0469"/><text fill="#000000" font-family="sans-serif" font-size="14" lengthAdjust="spacing" textLength="125.7129" x="714.2441" y="970.042">NombreInputView</text></g><g class="participant participant-head" data-participant="GameView"><rect fill="#E2E2F0" height="30.2969" rx="2.5" ry="2.5" style="stroke:#181818;stroke-width:0.5;" width="89.209" x="856.957" y="87.2969"/><text fill="#000000" font-family="sans-serif" font-size="14" lengthAdjust="spacing" textLength="75.209" x="863.957" y="107.292">GameView</text></g><g class="participant participant-tail" data-participant="GameView"><rect fill="#E2E2F0" height="30.2969" rx="2.5" ry="2.5" style="stroke:#181818;stroke-width:0.5;" width="89.209" x="856.957" y="950.0469"/><text fill="#000000" font-family="sans-serif" font-size="14" lengthAdjust="spacing" textLength="75.209" x="863.957" y="970.042">GameView</text></g><g class="participant participant-head" data-participant="PausaView"><rect fill="#E2E2F0" height="30.2969" rx="2.5" ry="2.5" style="stroke:#181818;stroke-width:0.5;" width="89.2979" x="995.4346" y="87.2969"/><text fill="#000000" font-family="sans-serif" font-size="14" lengthAdjust="spacing" textLength="75.2979" x="1002.4346" y="107.292">PausaView</text></g><g class="participant participant-tail" data-participant="PausaView"><rect fill="#E2E2F0" height="30.2969" rx="2.5" ry="2.5" style="stroke:#181818;stroke-width:0.5;" width="89.2979" x="995.4346" y="950.0469"/><text fill="#000000" font-family="sans-serif" font-size="14" lengthAdjust="spacing" textLength="75.2979" x="1002.4346" y="970.042">PausaView</text></g><g class="participant participant-head" data-participant="Data"><rect fill="#E2E2F0" height="30.2969" rx="2.5" ry="2.5" style="stroke:#181818;stroke-width:0.5;" width="89.1064" x="1094.7324" y="87.2969"/><text fill="#000000" font-family="sans-serif" font-size="14" lengthAdjust="spacing" textLength="75.1064" x="1101.7324" y="107.292">GameData</text></g><g class="participant participant-tail" data-participant="Data"><rect fill="#E2E2F0" height="30.2969" rx="2.5" ry="2.5" style="stroke:#181818;stroke-width:0.5;" width="89.1064" x="1094.7324" y="950.0469"/><text fill="#000000" font-family="sans-serif" font-size="14" lengthAdjust="spacing" textLength="75.1064" x="1101.7324" y="970.042">GameData</text></g><rect fill="#EEEEEE" height="3" style="stroke:#EEEEEE;stroke-width:1;" width="1188.8389" x="0" y="149.1602"/><line style="stroke:#000000;stroke-width:1;" x1="0" x2="1188.8389" y1="149.1602" y2="149.1602"/><line style="stroke:#000000;stroke-width:1;" x1="0" x2="1188.8389" y1="152.1602" y2="152.1602"/><rect fill="#EEEEEE" height="23.1328" style="stroke:#000000;stroke-width:2;" width="184.498" x="502.1704" y="138.5938"/><text fill="#000000" font-family="sans-serif" font-size="13" font-weight="bold" lengthAdjust="spacing" textLength="165.9722" x="508.1704" y="154.6606">Desde Men&#250; a Nombre</text><g class="message" data-participant-1="Player" data-participant-2="App"><polygon fill="#181818" points="210.8296,188.8594,220.8296,192.8594,210.8296,196.8594,214.8296,192.8594" style="stroke:#181818;stroke-width:1;"/><line style="stroke:#181818;stroke-width:1;" x1="34.8379" x2="216.8296" y1="192.8594" y2="192.8594"/><text fill="#000000" font-family="sans-serif" font-size="13" lengthAdjust="spacing" textLength="99.7598" x="41.8379" y="187.7935">keyPressed('1')</text></g><g class="message" data-participant-1="App" data-participant-2="Controller"><polygon fill="#181818" points="448.498,217.9922,458.498,221.9922,448.498,225.9922,452.498,221.9922" style="stroke:#181818;stroke-width:1;"/><line style="stroke:#181818;stroke-width:1;" x1="222.8296" x2="454.498" y1="221.9922" y2="221.9922"/><text fill="#000000" font-family="sans-serif" font-size="13" lengthAdjust="spacing" textLength="185.9609" x="229.8296" y="216.9263">manejarTeclaPresionada('1')</text></g><g class="message" data-participant-1="Controller" data-participant-2="MenuView"><polygon fill="#181818" points="642.2598,247.125,652.2598,251.125,642.2598,255.125,646.2598,251.125" style="stroke:#181818;stroke-width:1;"/><line style="stroke:#181818;stroke-width:1;" x1="460.498" x2="648.2598" y1="251.125" y2="251.125"/><text fill="#000000" font-family="sans-serif" font-size="13" lengthAdjust="spacing" textLength="99.7598" x="467.498" y="246.0591">keyPressed('1')</text></g><g class="message" data-participant-1="MenuView" data-participant-2="Controller"><polygon fill="#181818" points="471.498,276.2578,461.498,280.2578,471.498,284.2578,467.498,280.2578" style="stroke:#181818;stroke-width:1;"/><line style="stroke:#181818;stroke-width:1;" x1="465.498" x2="653.2598" y1="280.2578" y2="280.2578"/><text fill="#000000" font-family="sans-serif" font-size="13" lengthAdjust="spacing" textLength="169.7617" x="477.498" y="275.1919">cambiarEstado("nombre")</text></g><g class="message" data-participant-1="Controller" data-participant-2="NombreInputView"><polygon fill="#181818" points="765.1006,305.3906,775.1006,309.3906,765.1006,313.3906,769.1006,309.3906" style="stroke:#181818;stroke-width:1;"/><line style="stroke:#181818;stroke-width:1;" x1="460.498" x2="771.1006" y1="309.3906" y2="309.3906"/><text fill="#000000" font-family="sans-serif" font-size="13" lengthAdjust="spacing" textLength="49.6768" x="467.498" y="304.3247">iniciar()</text></g><rect fill="#EEEEEE" height="3" style="stroke:#EEEEEE;stroke-width:1;" width="1188.8389" x="0" y="337.957"/><line style="stroke:#000000;stroke-width:1;" x1="0" x2="1188.8389" y1="337.957" y2="337.957"/><line style="stroke:#000000;stroke-width:1;" x1="0" x2="1188.8389" y1="340.957" y2="340.957"/><rect fill="#EEEEEE" height="23.1328" style="stroke:#000000;stroke-width:2;" width="135.3862" x="526.7263" y="327.3906"/><text fill="#000000" font-family="sans-serif" font-size="13" font-weight="bold" lengthAdjust="spacing" textLength="116.8604" x="532.7263" y="343.4575">Nombre a Juego</text><g class="message" data-participant-1="Player" data-participant-2="App"><polygon fill="#181818" points="210.8296,377.6563,220.8296,381.6563,210.8296,385.6563,214.8296,381.6563" style="stroke:#181818;stroke-width:1;"/><line style="stroke:#181818;stroke-width:1;" x1="34.8379" x2="216.8296" y1="381.6563" y2="381.6563"/><text fill="#000000" font-family="sans-serif" font-size="13" lengthAdjust="spacing" textLength="163.9917" x="41.8379" y="376.5903">escribe nombre + ENTER</text></g><g class="message" data-participant-1="App" data-participant-2="Controller"><polygon fill="#181818" points="448.498,406.7891,458.498,410.7891,448.498,414.7891,452.498,410.7891" style="stroke:#181818;stroke-width:1;"/><line style="stroke:#181818;stroke-width:1;" x1="222.8296" x2="454.498" y1="410.7891" y2="410.7891"/><text fill="#000000" font-family="sans-serif" font-size="13" lengthAdjust="spacing" textLength="213.6685" x="229.8296" y="405.7231">manejarTeclaPresionada(ENTER)</text></g><g class="message" data-participant-1="Controller" data-participant-2="NombreInputView"><polygon fill="#181818" points="765.1006,435.9219,775.1006,439.9219,765.1006,443.9219,769.1006,439.9219" style="stroke:#181818;stroke-width:1;"/><line style="stroke:#181818;stroke-width:1;" x1="460.498" x2="771.1006" y1="439.9219" y2="439.9219"/><text fill="#000000" font-family="sans-serif" font-size="13" lengthAdjust="spacing" textLength="127.4673" x="467.498" y="434.856">keyPressed(ENTER)</text></g><g class="message" data-participant-1="NombreInputView" data-participant-2="Data"><polygon fill="#181818" points="1127.2856,465.0547,1137.2856,469.0547,1127.2856,473.0547,1131.2856,469.0547" style="stroke:#181818;stroke-width:1;"/><line style="stroke:#181818;stroke-width:1;" x1="777.1006" x2="1133.2856" y1="469.0547" y2="469.0547"/><text fill="#000000" font-family="sans-serif" font-size="13" lengthAdjust="spacing" textLength="152.8896" x="784.1006" y="463.9888">nombreJugador = input</text></g><g class="message" data-participant-1="NombreInputView" data-participant-2="Controller"><polygon fill="#181818" points="471.498,494.1875,461.498,498.1875,471.498,502.1875,467.498,498.1875" style="stroke:#181818;stroke-width:1;"/><line style="stroke:#181818;stroke-width:1;" x1="465.498" x2="776.1006" y1="498.1875" y2="498.1875"/><text fill="#000000" font-family="sans-serif" font-size="13" lengthAdjust="spacing" textLength="155.3652" x="477.498" y="493.1216">cambiarEstado("juego")</text></g><g class="message" data-participant-1="Controller" data-participant-2="GameView"><polygon fill="#181818" points="889.5615,523.3203,899.5615,527.3203,889.5615,531.3203,893.5615,527.3203" style="stroke:#181818;stroke-width:1;"/><line style="stroke:#181818;stroke-width:1;" x1="460.498" x2="895.5615" y1="527.3203" y2="527.3203"/><text fill="#000000" font-family="sans-serif" font-size="13" lengthAdjust="spacing" textLength="49.6768" x="467.498" y="522.2544">iniciar()</text></g><g class="message" data-participant-1="GameView" data-participant-2="Data"><polygon fill="#181818" points="1127.2856,552.4531,1137.2856,556.4531,1127.2856,560.4531,1131.2856,556.4531" style="stroke:#181818;stroke-width:1;"/><line style="stroke:#181818;stroke-width:1;" x1="901.5615" x2="1133.2856" y1="556.4531" y2="556.4531"/><text fill="#000000" font-family="sans-serif" font-size="13" lengthAdjust="spacing" textLength="143.1587" x="908.5615" y="551.3872">tiempoInicio = millis()</text></g><g class="message" data-participant-1="GameView" data-participant-2="GameView"><line style="stroke:#181818;stroke-width:1;" x1="901.5615" x2="943.5615" y1="585.5859" y2="585.5859"/><line style="stroke:#181818;stroke-width:1;" x1="943.5615" x2="943.5615" y1="585.5859" y2="598.5859"/><line style="stroke:#181818;stroke-width:1;" x1="902.5615" x2="943.5615" y1="598.5859" y2="598.5859"/><polygon fill="#181818" points="912.5615,594.5859,902.5615,598.5859,912.5615,602.5859,908.5615,598.5859" style="stroke:#181818;stroke-width:1;"/><text fill="#000000" font-family="sans-serif" font-size="13" lengthAdjust="spacing" textLength="124.522" x="908.5615" y="580.52">crea Nave/Arreglos</text></g><rect fill="#EEEEEE" height="3" style="stroke:#EEEEEE;stroke-width:1;" width="1188.8389" x="0" y="627.1523"/><line style="stroke:#000000;stroke-width:1;" x1="0" x2="1188.8389" y1="627.1523" y2="627.1523"/><line style="stroke:#000000;stroke-width:1;" x1="0" x2="1188.8389" y1="630.1523" y2="630.1523"/><rect fill="#EEEEEE" height="23.1328" style="stroke:#000000;stroke-width:2;" width="171.0537" x="508.8926" y="616.5859"/><text fill="#000000" font-family="sans-serif" font-size="13" font-weight="bold" lengthAdjust="spacing" textLength="152.5278" x="514.8926" y="632.6528">Pausa y reanudaci&#243;n</text><g class="message" data-participant-1="Player" data-participant-2="App"><polygon fill="#181818" points="210.8296,666.8516,220.8296,670.8516,210.8296,674.8516,214.8296,670.8516" style="stroke:#181818;stroke-width:1;"/><line style="stroke:#181818;stroke-width:1;" x1="34.8379" x2="216.8296" y1="670.8516" y2="670.8516"/><text fill="#000000" font-family="sans-serif" font-size="13" lengthAdjust="spacing" textLength="99.3281" x="41.8379" y="665.7856">keyPressed('P')</text></g><g class="message" data-participant-1="App" data-participant-2="Controller"><polygon fill="#181818" points="448.498,695.9844,458.498,699.9844,448.498,703.9844,452.498,699.9844" style="stroke:#181818;stroke-width:1;"/><line style="stroke:#181818;stroke-width:1;" x1="222.8296" x2="454.498" y1="699.9844" y2="699.9844"/><text fill="#000000" font-family="sans-serif" font-size="13" lengthAdjust="spacing" textLength="185.5293" x="229.8296" y="694.9185">manejarTeclaPresionada('P')</text></g><g class="message" data-participant-1="Controller" data-participant-2="GameView"><polygon fill="#181818" points="889.5615,725.1172,899.5615,729.1172,889.5615,733.1172,893.5615,729.1172" style="stroke:#181818;stroke-width:1;"/><line style="stroke:#181818;stroke-width:1;" x1="460.498" x2="895.5615" y1="729.1172" y2="729.1172"/><text fill="#000000" font-family="sans-serif" font-size="13" lengthAdjust="spacing" textLength="99.3281" x="467.498" y="724.0513">keyPressed('P')</text></g><g class="message" data-participant-1="GameView" data-participant-2="Controller"><polygon fill="#181818" points="471.498,754.25,461.498,758.25,471.498,762.25,467.498,758.25" style="stroke:#181818;stroke-width:1;"/><line style="stroke:#181818;stroke-width:1;" x1="465.498" x2="900.5615" y1="758.25" y2="758.25"/><text fill="#000000" font-family="sans-serif" font-size="13" lengthAdjust="spacing" textLength="158.5073" x="477.498" y="753.1841">cambiarEstado("pausa")</text></g><g class="message" data-participant-1="Controller" data-participant-2="PausaView"><polygon fill="#181818" points="1028.0835,783.3828,1038.0835,787.3828,1028.0835,791.3828,1032.0835,787.3828" style="stroke:#181818;stroke-width:1;"/><line style="stroke:#181818;stroke-width:1;" x1="460.498" x2="1034.0835" y1="787.3828" y2="787.3828"/><text fill="#000000" font-family="sans-serif" font-size="13" lengthAdjust="spacing" textLength="49.6768" x="467.498" y="782.3169">iniciar()</text></g><g class="message" data-participant-1="Player" data-participant-2="App"><polygon fill="#181818" points="210.8296,812.5156,220.8296,816.5156,210.8296,820.5156,214.8296,816.5156" style="stroke:#181818;stroke-width:1;"/><line style="stroke:#181818;stroke-width:1;" x1="34.8379" x2="216.8296" y1="816.5156" y2="816.5156"/><text fill="#000000" font-family="sans-serif" font-size="13" lengthAdjust="spacing" textLength="146.834" x="41.8379" y="811.4497">keyPressed('P')/ENTER</text></g><g class="message" data-participant-1="App" data-participant-2="Controller"><polygon fill="#181818" points="448.498,841.6484,458.498,845.6484,448.498,849.6484,452.498,845.6484" style="stroke:#181818;stroke-width:1;"/><line style="stroke:#181818;stroke-width:1;" x1="222.8296" x2="454.498" y1="845.6484" y2="845.6484"/><text fill="#000000" font-family="sans-serif" font-size="13" lengthAdjust="spacing" textLength="185.5293" x="229.8296" y="840.5825">manejarTeclaPresionada('P')</text></g><g class="message" data-participant-1="Controller" data-participant-2="PausaView"><polygon fill="#181818" points="1028.0835,870.7813,1038.0835,874.7813,1028.0835,878.7813,1032.0835,874.7813" style="stroke:#181818;stroke-width:1;"/><line style="stroke:#181818;stroke-width:1;" x1="460.498" x2="1034.0835" y1="874.7813" y2="874.7813"/><text fill="#000000" font-family="sans-serif" font-size="13" lengthAdjust="spacing" textLength="99.3281" x="467.498" y="869.7153">keyPressed('P')</text></g><g class="message" data-participant-1="PausaView" data-participant-2="Controller"><polygon fill="#181818" points="471.498,899.9141,461.498,903.9141,471.498,907.9141,467.498,903.9141" style="stroke:#181818;stroke-width:1;"/><line style="stroke:#181818;stroke-width:1;" x1="465.498" x2="1039.0835" y1="903.9141" y2="903.9141"/><text fill="#000000" font-family="sans-serif" font-size="13" lengthAdjust="spacing" textLength="155.3652" x="477.498" y="898.8481">cambiarEstado("juego")</text></g><g class="message" data-participant-1="Controller" data-participant-2="GameView"><polygon fill="#181818" points="889.5615,929.0469,899.5615,933.0469,889.5615,937.0469,893.5615,933.0469" style="stroke:#181818;stroke-width:1;"/><line style="stroke:#181818;stroke-width:1;" x1="460.498" x2="895.5615" y1="933.0469" y2="933.0469"/><text fill="#000000" font-family="sans-serif" font-size="13" lengthAdjust="spacing" textLength="115.8955" x="467.498" y="927.981">iniciar()/continuar</text></g><!--SRC=[hLDBRjim4Dth50DjRACeZ6m3g41GEq42n10AewjknjJ0fKsH0aaby0LwW5mbksvpavwaGyeVMJ9i6CYEcdapVE_noKkl2EvLlJ9G493pM1Xt2y-aF_x2lpzlC3Fbmb8yFjMqDF6KO-tmK4iI5DvO_bZok0Lqa2lSa4qgj5uAMQ7saEPtLQN8_z93joOlVe_IWEJY4UoxqTuQfJhJpAZ-AUdrgDYGUzHLxNkz1oofLup4UzKqO2VeCH8AXoJ9CfYGOqyQAt1dH9ObZJRu-YrmXrjOqoQtv1mLmy7DO9I4AZSFGXXJegOLsZa9XG4iZSO26tmBo6CxeISMxrlTxGBBXKGxZSytJ7MacdOtTzpYEQdP0hJ3KTIxLOZRXpwXb9omSa7GN01VO3gRJtzS8pWEN2RMKhwTw69uB3mKOniok-nbB8enf_3dB5i5oJt7TXawicfVF53maihAF0O8-mQbL4gw3hIrIrZYFE4BZU-ifQKoBlhV_5KRuAwk2nJourrVobj-PTxomHcDtSLj-kVCgmBndddxV-quQ1VKZA-Er0bDxQkxeWwzJul4M314wXhjVm00]--></g></svg>