<svg xmlns="http://www.w3.org/2000/svg" xmlns:xlink="http://www.w3.org/1999/xlink" contentStyleType="text/css" data-diagram-type="SEQUENCE" height="746px" preserveAspectRatio="none" style="width:1052px;height:746px;background:#FFFFFF;" version="1.1" viewBox="0 0 1052 746" width="1052px" zoomAndPan="magnify"><title>Disparo del jugador y destrucci&#243;n de un enemigo</title><defs/><g><text fill="#000000" font-family="sans-serif" font-size="14" font-weight="bold" lengthAdjust="spacing" textLength="388.9102" x="333.3157" y="27.9951">Disparo del jugador y destrucci&#243;n de un enemigo</text><g><title>GameView</title><rect fill="#FFFFFF" height="448.6641" style="stroke:#181818;stroke-width:1;" width="10" x="602.1475" y="207.9922"/></g><g><title>GameView</title><rect fill="#FFFFFF" height="270.8672" style="stroke:#181818;stroke-width:1;" width="10" x="607.1475" y="377.7891"/></g><g><title>Nave</title><rect fill="#FFFFFF" height="29.1328" style="stroke:#181818;stroke-width:1;" width="10" x="725.4082" y="237.125"/></g><rect fill="none" height="338.2656" style="stroke:#000000;stroke-width:1.5;" width="937.5815" x="108.96" y="310.3906"/><rect fill="none" height="161.4688" style="stroke:#000000;stroke-width:1.5;" width="483.9985" x="552.543" y="480.1875"/><g><title>Jugador</title><rect fill="#000000" fill-opacity="0.00000" height="547.0625" width="8" x="30.8379" y="118.5938"/><line style="stroke:#181818;stroke-width:0.5;stroke-dasharray:5,5;" x1="34" x2="34" y1="118.5938" y2="665.6563"/></g><g><title>PApplet</title><rect fill="#000000" fill-opacity="0.00000" height="547.0625" width="8" x="150.459" y="118.5938"/><line style="stroke:#181818;stroke-width:0.5;stroke-dasharray:5,5;" x1="153.96" x2="153.96" y1="118.5938" y2="665.6563"/></g><g><title>Controller</title><rect fill="#000000" fill-opacity="0.00000" height="547.0625" width="8" x="432.9863" y="118.5938"/><line style="stroke:#181818;stroke-width:0.5;stroke-dasharray:5,5;" x1="436.3999" x2="436.3999" y1="118.5938" y2="665.6563"/></g><g><title>GameView</title><rect fill="#000000" fill-opacity="0.00000" height="547.0625" width="8" x="603.1475" y="118.5938"/><line style="stroke:#181818;stroke-width:0.5;stroke-dasharray:5,5;" x1="606.543" x2="606.543" y1="118.5938" y2="665.6563"/></g><g><title>Nave</title><rect fill="#000000" fill-opacity="0.00000" height="547.0625" width="8" x="726.4082" y="118.5938"/><line style="stroke:#181818;stroke-width:0.5;stroke-dasharray:5,5;" x1="729.4331" x2="729.4331" y1="118.5938" y2="665.6563"/></g><g><title>Municion</title><rect fill="#000000" fill-opacity="0.00000" height="547.0625" width="8" x="799.7534" y="118.5938"/><line style="stroke:#181818;stroke-width:0.5;stroke-dasharray:5,5;" x1="803.3833" x2="803.3833" y1="118.5938" y2="665.6563"/></g><g><title>Enemigo</title><rect fill="#000000" fill-opacity="0.00000" height="547.0625" width="8" x="885.7793" y="118.5938"/><line style="stroke:#181818;stroke-width:0.5;stroke-dasharray:5,5;" x1="889.1235" x2="889.1235" y1="118.5938" y2="665.6563"/></g><g><title>GameData</title><rect fill="#000000" fill-opacity="0.00000" height="547.0625" width="8" x="977.9883" y="118.5938"/><line style="stroke:#181818;stroke-width:0.5;stroke-dasharray:5,5;" x1="981.4351" x2="981.4351" y1="118.5938" y2="665.6563"/></g><g class="participant participant-head" data-participant="Player"><text fill="#000000" font-family="sans-serif" font-size="14" lengthAdjust="spacing" textLength="53.6758" x="5" y="115.292">Jugador</text><ellipse cx="34.8379" cy="50.7969" fill="#E2E2F0" rx="8" ry="8" style="stroke:#181818;stroke-width:0.5;"/><path d="M34.8379,58.7969 L34.8379,85.7969 M21.8379,66.7969 L47.8379,66.7969 M34.8379,85.7969 L21.8379,100.7969 M34.8379,85.7969 L47.8379,100.7969" fill="none" style="stroke:#181818;stroke-width:0.5;"/></g><g class="participant participant-tail" data-participant="Player"><text fill="#000000" font-family="sans-serif" font-size="14" lengthAdjust="spacing" textLength="53.6758" x="5" y="677.6514">Jugador</text><ellipse cx="34.8379" cy="689.4531" fill="#E2E2F0" rx="8" ry="8" style="stroke:#181818;stroke-width:0.5;"/><path d="M34.8379,697.4531 L34.8379,724.4531 M21.8379,705.4531 L47.8379,705.4531 M34.8379,724.4531 L21.8379,739.4531 M34.8379,724.4531 L47.8379,739.4531" fill="none" style="stroke:#181818;stroke-width:0.5;"/></g><g class="participant participant-head" data-participant="App"><rect fill="#E2E2F0" height="46.5938" rx="2.5" ry="2.5" style="stroke:#181818;stroke-width:0.5;" width="70.998" x="118.96" y="71"/><text fill="#000000" font-family="sans-serif" font-size="14" lengthAdjust="spacing" textLength="53.7852" x="127.5664" y="90.9951">PApplet</text><text fill="#000000" font-family="sans-serif" font-size="14" lengthAdjust="spacing" textLength="56.998" x="125.96" y="107.292">(sketch)</text></g><g class="participant participant-tail" data-participant="App"><rect fill="#E2E2F0" height="46.5938" rx="2.5" ry="2.5" style="stroke:#181818;stroke-width:0.5;" width="70.998" x="118.96" y="664.6563"/><text fill="#000000" font-family="sans-serif" font-size="14" lengthAdjust="spacing" textLength="53.7852" x="127.5664" y="684.6514">PApplet</text><text fill="#000000" font-family="sans-serif" font-size="14" lengthAdjust="spacing" textLength="56.998" x="125.96" y="700.9482">(sketch)</text></g><g class="participant participant-head" data-participant="Controller"><rect fill="#E2E2F0" height="30.2969" rx="2.5" ry="2.5" style="stroke:#181818;stroke-width:0.5;" width="83.1729" x="395.3999" y="87.2969"/><text fill="#000000" font-family="sans-serif" font-size="14" lengthAdjust="spacing" textLength="69.1729" x="402.3999" y="107.292">Controller</text></g><g class="participant participant-tail" data-participant="Controller"><rect fill="#E2E2F0" height="30.2969" rx="2.5" ry="2.5" style="stroke:#181818;stroke-width:0.5;" width="83.1729" x="395.3999" y="664.6563"/><text fill="#000000" font-family="sans-serif" font-size="14" lengthAdjust="spacing" textLength="69.1729" x="402.3999" y="684.6514">Controller</text></g><g class="participant participant-head" data-participant="GameView"><rect fill="#E2E2F0" height="30.2969" rx="2.5" ry="2.5" style="stroke:#181818;stroke-width:0.5;" width="89.209" x="562.543" y="87.2969"/><text fill="#000000" font-family="sans-serif" font-size="14" lengthAdjust="spacing" textLength="75.209" x="569.543" y="107.292">GameView</text></g><g class="participant participant-tail" data-participant="GameView"><rect fill="#E2E2F0" height="30.2969" rx="2.5" ry="2.5" style="stroke:#181818;stroke-width:0.5;" width="89.209" x="562.543" y="664.6563"/><text fill="#000000" font-family="sans-serif" font-size="14" lengthAdjust="spacing" textLength="75.209" x="569.543" y="684.6514">GameView</text></g><g class="participant participant-head" data-participant="Nave"><rect fill="#E2E2F0" height="30.2969" rx="2.5" ry="2.5" style="stroke:#181818;stroke-width:0.5;" width="49.9502" x="705.4331" y="87.2969"/><text fill="#000000" font-family="sans-serif" font-size="14" lengthAdjust="spacing" textLength="35.9502" x="712.4331" y="107.292">Nave</text></g><g class="participant participant-tail" data-participant="Nave"><rect fill="#E2E2F0" height="30.2969" rx="2.5" ry="2.5" style="stroke:#181818;stroke-width:0.5;" width="49.9502" x="705.4331" y="664.6563"/><text fill="#000000" font-family="sans-serif" font-size="14" lengthAdjust="spacing" textLength="35.9502" x="712.4331" y="684.6514">Nave</text></g><g class="participant participant-head" data-participant="Municion"><rect fill="#E2E2F0" height="30.2969" rx="2.5" ry="2.5" style="stroke:#181818;stroke-width:0.5;" width="76.7402" x="765.3833" y="87.2969"/><text fill="#000000" font-family="sans-serif" font-size="14" lengthAdjust="spacing" textLength="62.7402" x="772.3833" y="107.292">Municion</text></g><g class="participant participant-tail" data-participant="Municion"><rect fill="#E2E2F0" height="30.2969" rx="2.5" ry="2.5" style="stroke:#181818;stroke-width:0.5;" width="76.7402" x="765.3833" y="664.6563"/><text fill="#000000" font-family="sans-serif" font-size="14" lengthAdjust="spacing" textLength="62.7402" x="772.3833" y="684.6514">Municion</text></g><g class="participant participant-head" data-participant="Enemigo"><rect fill="#E2E2F0" height="30.2969" rx="2.5" ry="2.5" style="stroke:#181818;stroke-width:0.5;" width="75.3115" x="852.1235" y="87.2969"/><text fill="#000000" font-family="sans-serif" font-size="14" lengthAdjust="spacing" textLength="61.3115" x="859.1235" y="107.292">Enemigo</text></g><g class="participant participant-tail" data-participant="Enemigo"><rect fill="#E2E2F0" height="30.2969" rx="2.5" ry="2.5" style="stroke:#181818;stroke-width:0.5;" width="75.3115" x="852.1235" y="664.6563"/><text fill="#000000" font-family="sans-serif" font-size="14" lengthAdjust="spacing" textLength="61.3115" x="859.1235" y="684.6514">Enemigo</text></g><g class="participant participant-head" data-participant="Data"><rect fill="#E2E2F0" height="30.2969" rx="2.5" ry="2.5" style="stroke:#181818;stroke-width:0.5;" width="89.1064" x="937.4351" y="87.2969"/><text fill="#000000" font-family="sans-serif" font-size="14" lengthAdjust="spacing" textLength="75.1064" x="944.4351" y="107.292">GameData</text></g><g class="participant participant-tail" data-participant="Data"><rect fill="#E2E2F0" height="30.2969" rx="2.5" ry="2.5" style="stroke:#181818;stroke-width:0.5;" width="89.1064" x="937.4351" y="664.6563"/><text fill="#000000" font-family="sans-serif" font-size="14" lengthAdjust="spacing" textLength="75.1064" x="944.4351" y="684.6514">GameData</text></g><g><title>GameView</title><rect fill="#FFFFFF" height="448.6641" style="stroke:#181818;stroke-width:1;" width="10" x="602.1475" y="207.9922"/></g><g><title>GameView</title><rect fill="#FFFFFF" height="270.8672" style="stroke:#181818;stroke-width:1;" width="10" x="607.1475" y="377.7891"/></g><g><title>Nave</title><rect fill="#FFFFFF" height="29.1328" style="stroke:#181818;stroke-width:1;" width="10" x="725.4082" y="237.125"/></g><g class="message" data-participant-1="Player" data-participant-2="App"><polygon fill="#181818" points="142.459,145.7266,152.459,149.7266,142.459,153.7266,146.459,149.7266" style="stroke:#181818;stroke-width:1;"/><line style="stroke:#181818;stroke-width:1;" x1="34.8379" x2="148.459" y1="149.7266" y2="149.7266"/><text fill="#000000" font-family="sans-serif" font-size="13" lengthAdjust="spacing" textLength="95.6211" x="41.8379" y="144.6606">keyPressed(' ')</text></g><g class="message" data-participant-1="App" data-participant-2="Controller"><polygon fill="#181818" points="424.9863,174.8594,434.9863,178.8594,424.9863,182.8594,428.9863,178.8594" style="stroke:#181818;stroke-width:1;"/><line style="stroke:#181818;stroke-width:1;" x1="154.459" x2="430.9863" y1="178.8594" y2="178.8594"/><text fill="#000000" font-family="sans-serif" font-size="13" lengthAdjust="spacing" textLength="258.5273" x="161.459" y="173.7935">manejarTeclaPresionada(key, keyCode)</text></g><g class="message" data-participant-1="Controller" data-participant-2="GameView"><polygon fill="#181818" points="590.1475,203.9922,600.1475,207.9922,590.1475,211.9922,594.1475,207.9922" style="stroke:#181818;stroke-width:1;"/><line style="stroke:#181818;stroke-width:1;" x1="436.9863" x2="596.1475" y1="207.9922" y2="207.9922"/><text fill="#000000" font-family="sans-serif" font-size="13" lengthAdjust="spacing" textLength="146.1611" x="443.9863" y="202.9263">keyPressed(' ', SPACE)</text></g><g class="message" data-participant-1="GameView" data-participant-2="Nave"><polygon fill="#181818" points="713.4082,233.125,723.4082,237.125,713.4082,241.125,717.4082,237.125" style="stroke:#181818;stroke-width:1;"/><line style="stroke:#181818;stroke-width:1;" x1="612.1475" x2="719.4082" y1="237.125" y2="237.125"/><text fill="#000000" font-family="sans-serif" font-size="13" lengthAdjust="spacing" textLength="63.6543" x="619.1475" y="232.0591">disparar()</text></g><g class="message" data-participant-1="Nave" data-participant-2="GameView"><polygon fill="#181818" points="623.1475,262.2578,613.1475,266.2578,623.1475,270.2578,619.1475,266.2578" style="stroke:#181818;stroke-width:1;"/><line style="stroke:#181818;stroke-width:1;stroke-dasharray:2,2;" x1="617.1475" x2="729.4082" y1="266.2578" y2="266.2578"/><text fill="#000000" font-family="sans-serif" font-size="13" lengthAdjust="spacing" textLength="89.2607" x="629.1475" y="261.1919">new Municion</text></g><g class="message" data-participant-1="GameView" data-participant-2="Municion"><polygon fill="#181818" points="791.7534,291.3906,801.7534,295.3906,791.7534,299.3906,795.7534,295.3906" style="stroke:#181818;stroke-width:1;"/><line style="stroke:#181818;stroke-width:1;" x1="612.1475" x2="797.7534" y1="295.3906" y2="295.3906"/><text fill="#000000" font-family="sans-serif" font-size="13" lengthAdjust="spacing" textLength="153.4736" x="619.1475" y="290.3247">agregar a lista disparos</text></g><path d="M108.96,310.3906 L185.584,310.3906 L185.584,317.5234 L175.584,327.5234 L108.96,327.5234 L108.96,310.3906" fill="#EEEEEE" style="stroke:#000000;stroke-width:1.5;"/><rect fill="none" height="338.2656" style="stroke:#000000;stroke-width:1.5;" width="937.5815" x="108.96" y="310.3906"/><text fill="#000000" font-family="sans-serif" font-size="13" font-weight="bold" lengthAdjust="spacing" textLength="31.624" x="123.96" y="323.4575">loop</text><text fill="#000000" font-family="sans-serif" font-size="11" font-weight="bold" lengthAdjust="spacing" textLength="79.6802" x="200.584" y="322.6011">[cada frame]</text><g class="message" data-participant-1="App" data-participant-2="Controller"><polygon fill="#181818" points="424.9863,344.6563,434.9863,348.6563,424.9863,352.6563,428.9863,348.6563" style="stroke:#181818;stroke-width:1;"/><line style="stroke:#181818;stroke-width:1;" x1="154.459" x2="430.9863" y1="348.6563" y2="348.6563"/><text fill="#000000" font-family="sans-serif" font-size="13" lengthAdjust="spacing" textLength="120.6372" x="161.459" y="343.5903">draw()/actualizar()</text></g><g class="message" data-participant-1="Controller" data-participant-2="GameView"><polygon fill="#181818" points="595.1475,373.7891,605.1475,377.7891,595.1475,381.7891,599.1475,377.7891" style="stroke:#181818;stroke-width:1;"/><line style="stroke:#181818;stroke-width:1;" x1="436.9863" x2="601.1475" y1="377.7891" y2="377.7891"/><text fill="#000000" font-family="sans-serif" font-size="13" lengthAdjust="spacing" textLength="73.9185" x="443.9863" y="372.7231">actualizar()</text></g><g class="message" data-participant-1="GameView" data-participant-2="Municion"><polygon fill="#181818" points="791.7534,402.9219,801.7534,406.9219,791.7534,410.9219,795.7534,406.9219" style="stroke:#181818;stroke-width:1;"/><line style="stroke:#181818;stroke-width:1;" x1="617.1475" x2="797.7534" y1="406.9219" y2="406.9219"/><text fill="#000000" font-family="sans-serif" font-size="13" lengthAdjust="spacing" textLength="73.9185" x="624.1475" y="401.856">actualizar()</text></g><g class="message" data-participant-1="GameView" data-participant-2="Enemigo"><polygon fill="#181818" points="877.7793,432.0547,887.7793,436.0547,877.7793,440.0547,881.7793,436.0547" style="stroke:#181818;stroke-width:1;"/><line style="stroke:#181818;stroke-width:1;" x1="617.1475" x2="883.7793" y1="436.0547" y2="436.0547"/><text fill="#000000" font-family="sans-serif" font-size="13" lengthAdjust="spacing" textLength="73.9185" x="624.1475" y="430.9888">actualizar()</text></g><g class="message" data-participant-1="GameView" data-participant-2="Municion"><polygon fill="#181818" points="791.7534,461.1875,801.7534,465.1875,791.7534,469.1875,795.7534,465.1875" style="stroke:#181818;stroke-width:1;"/><line style="stroke:#181818;stroke-width:1;" x1="617.1475" x2="797.7534" y1="465.1875" y2="465.1875"/><text fill="#000000" font-family="sans-serif" font-size="13" lengthAdjust="spacing" textLength="149.2144" x="624.1475" y="460.1216">colisionaCon(Enemigo)</text></g><path d="M552.543,480.1875 L616.9858,480.1875 L616.9858,487.3203 L606.9858,497.3203 L552.543,497.3203 L552.543,480.1875" fill="#EEEEEE" style="stroke:#000000;stroke-width:1.5;"/><rect fill="none" height="161.4688" style="stroke:#000000;stroke-width:1.5;" width="483.9985" x="552.543" y="480.1875"/><text fill="#000000" font-family="sans-serif" font-size="13" font-weight="bold" lengthAdjust="spacing" textLength="19.4429" x="567.543" y="493.2544">alt</text><text fill="#000000" font-family="sans-serif" font-size="11" font-weight="bold" lengthAdjust="spacing" textLength="83.6333" x="631.9858" y="492.3979">[hay colisi&#243;n]</text><g class="message" data-participant-1="GameView" data-participant-2="Enemigo"><polygon fill="#181818" points="877.7793,514.4531,887.7793,518.4531,877.7793,522.4531,881.7793,518.4531" style="stroke:#181818;stroke-width:1;"/><line style="stroke:#181818;stroke-width:1;" x1="617.1475" x2="883.7793" y1="518.4531" y2="518.4531"/><text fill="#000000" font-family="sans-serif" font-size="13" lengthAdjust="spacing" textLength="60.8042" x="624.1475" y="513.3872">destruir()</text></g><g class="message" data-participant-1="GameView" data-participant-2="Data"><polygon fill="#181818" points="969.9883,543.5859,979.9883,547.5859,969.9883,551.5859,973.9883,547.5859" style="stroke:#181818;stroke-width:1;"/><line style="stroke:#181818;stroke-width:1;" x1="617.1475" x2="975.9883" y1="547.5859" y2="547.5859"/><text fill="#000000" font-family="sans-serif" font-size="13" lengthAdjust="spacing" textLength="94.7705" x="624.1475" y="542.52">puntuacion++</text></g><g class="message" data-participant-1="GameView" data-participant-2="Municion"><polygon fill="#181818" points="791.7534,572.7188,801.7534,576.7188,791.7534,580.7188,795.7534,576.7188" style="stroke:#181818;stroke-width:1;"/><line style="stroke:#181818;stroke-width:1;" x1="617.1475" x2="797.7534" y1="576.7188" y2="576.7188"/><text fill="#000000" font-family="sans-serif" font-size="13" lengthAdjust="spacing" textLength="77.9937" x="624.1475" y="571.6528">desactivar()</text></g><line style="stroke:#000000;stroke-width:1;stroke-dasharray:2,2;" x1="552.543" x2="1036.5415" y1="585.7188" y2="585.7188"/><text fill="#000000" font-family="sans-serif" font-size="11" font-weight="bold" lengthAdjust="spacing" textLength="79.3579" x="557.543" y="595.9292">[sin colisi&#243;n]</text><g class="message" data-participant-1="GameView" data-participant-2="GameView"><line style="stroke:#181818;stroke-width:1;" x1="617.1475" x2="659.1475" y1="620.6563" y2="620.6563"/><line style="stroke:#181818;stroke-width:1;" x1="659.1475" x2="659.1475" y1="620.6563" y2="633.6563"/><line style="stroke:#181818;stroke-width:1;" x1="618.1475" x2="659.1475" y1="633.6563" y2="633.6563"/><polygon fill="#181818" points="628.1475,629.6563,618.1475,633.6563,628.1475,637.6563,624.1475,633.6563" style="stroke:#181818;stroke-width:1;"/><text fill="#000000" font-family="sans-serif" font-size="13" lengthAdjust="spacing" textLength="56.4941" x="624.1475" y="615.5903">contin&#250;a</text></g><!--SRC=[VLF1JiCm3BtdAomkj1g8EmUaQPkGa42LG9ouM8dfChAaIbBG-2rkNFandBORpSPsYHBxFVlvkOqw6eAv3Wrw1ueChDeQbVEmuLU8lfLI_tnPVa1hWIojTUs4G1aPSpTWCK1bS4DUS9cefMxGHZYhfarZABxO8hnHbCloB24vcC5cpaRlZDbZt-AQdZLzPC47VASiSDzQlZgR1HU3oanCgZV7Y9s6T16YrmoNDqaJNCCRRIfF8P0gpk6y52dAoJ-1Z5cZfHNw9v864vXxeyA2gHU9FtEAIZ5YC7yxoK672tYifhD5cTpKxnZfR-WTX_bfQEQgRadeYn6-ywFBN-QDB9yxRnJbX77nBOWvM7kgaRS9HeU8GqCNX33EDI1vJdZrp1K0_rcZF7uKvHNtQj7epqufm54lzd277W0S4vepnwXXzQT1erBIyQnfXoop6CYT6XDXYPiXppy0nuvrwlyJtVV9GUaxOqJJMXQJMauc1vYH6gxKsz3N8XC8WhOdL8pyb6oqjZ_Vc9XMyJdQ-yvKplm2]--></g></svg>